<svg xmlns="http://www.w3.org/2000/svg" viewBox="0 0 115.49 119.79"><title>Asset 1</title><g id="Layer_2" data-name="Layer 2" fill="#001e63"><g id="Layer_1-2" data-name="Layer 1"><path d="M109.13,98.79c-.77,0-1.51.39-1.51,1.18s.72,1.1,2.84,1.79c2.34.77,5,1.85,5,5s-2.67,5.6-6.44,5.6A8,8,0,0,1,102,108l3.63-1.93a4,4,0,0,0,3.47,2.29c.85,0,1.92-.33,1.92-1.35,0-1.24-1.57-1.44-3.85-2.29-1.32-.5-4-1.63-4-4.72s2.59-5.19,5.83-5.19a7.1,7.1,0,0,1,5.67,2.87l-2.7,2.48A4.12,4.12,0,0,0,109.13,98.79ZM97,112.09H92.45V99H89.78V95h2.67V93.44a6.08,6.08,0,0,1,6.14-6h2.31V91.7H99a1.91,1.91,0,0,0-2.06,2V95h4.24v4H97Zm-17.33.28a8.75,8.75,0,0,1-8.75-8.74s0,0,0,0a8.75,8.75,0,0,1,17.5,0h0a8.75,8.75,0,0,1-8.72,8.77Zm0-13.08a4.3,4.3,0,0,0-4.24,4.33,4.24,4.24,0,1,0,8.47,0A4.3,4.3,0,0,0,79.63,99.29ZM83.79,93a2.53,2.53,0,0,1-2.53-2.53h0A2.53,2.53,0,1,1,83.79,93ZM78,90.43a2.53,2.53,0,1,1-5.06,0h0a2.53,2.53,0,1,1,5.06,0Zm-.17-25.61a5.68,5.68,0,0,1-5.67-5.69h0V46.22a5.68,5.68,0,0,1,5.67-5.69h0a5.68,5.68,0,0,1,5.67,5.69h0V59.13a5.68,5.68,0,0,1-5.67,5.69Zm0-40.53a5.68,5.68,0,0,1-5.67-5.69h0V5.69A5.68,5.68,0,0,1,77.83,0h0A5.68,5.68,0,0,1,83.5,5.69V18.6a5.68,5.68,0,0,1-5.67,5.69ZM64.22,38.11H51.34a5.68,5.68,0,0,1-5.67-5.69h0a5.68,5.68,0,0,1,5.67-5.69H64.22a5.68,5.68,0,0,1,5.67,5.68h0a5.68,5.68,0,0,1-5.67,5.69Zm-8.7,58.7V95h4.4v15.31c0,5.66-3.93,9.46-9.13,9.46a9.11,9.11,0,0,1-6.3-2.4l2.89-3.09a5.72,5.72,0,0,0,3.41,1.24,4.6,4.6,0,0,0,4.73-4.47v-.8a6.58,6.58,0,0,1-4.84,2,8.53,8.53,0,0,1-8.23-8.69c0-4.83,3.82-8.74,8.23-8.74A6.68,6.68,0,0,1,55.52,96.8ZM47,103.59a4.29,4.29,0,0,0,8.59,0,4.25,4.25,0,0,0-4.2-4.3h-.09A4.29,4.29,0,0,0,47,103.57S47,103.58,47,103.59ZM37.74,24.3a5.68,5.68,0,0,1-5.67-5.69h0V5.69A5.68,5.68,0,0,1,37.74,0h0a5.68,5.68,0,0,1,5.67,5.69V18.61a5.68,5.68,0,0,1-5.67,5.69Zm0,16.24a5.68,5.68,0,0,1,5.67,5.68h0V59.13a5.67,5.67,0,1,1-11.34,0h0V46.22a5.68,5.68,0,0,1,5.67-5.69ZM35.16,95h4.4v17.08h-4.4v-1.71a6.56,6.56,0,0,1-4.81,2,8.79,8.79,0,0,1,0-17.55,6.68,6.68,0,0,1,4.84,2ZM30.9,99.29a4.29,4.29,0,0,0-4.29,4.29v0A4.29,4.29,0,1,0,31,99.29Zm-16.34,2.65H4.65v10.15H0V87.42H4.65v10h9.91v-10H19.2v24.67H14.55ZM68,112.09H63.48V87.42H68Z"/></g></g></svg>