<svg xmlns="http://www.w3.org/2000/svg" xmlns:xlink="http://www.w3.org/1999/xlink" viewBox="0 0 22.63 21.51"><defs><style>.cls-1{fill:none;}.cls-2{clip-path:url(#clip-path);}.cls-3{fill:#001e63;}</style><clipPath id="clip-path" transform="translate(0 0)"><rect class="cls-1" width="22.63" height="21.51"/></clipPath></defs><title>Asset 5</title><g id="Layer_2" data-name="Layer 2"><g id="Layer_1-2" data-name="Layer 1"><g class="cls-2"><path class="cls-3" d="M11.31,2.5a1.15,1.15,0,0,1-.07.19q-1,3-2,6.1A.24.24,0,0,1,9,9H2.4l.16.13,5.19,3.77a.22.22,0,0,1,.1.3c-.56,1.68-1.1,3.36-1.65,5-.13.4-.25.79-.4,1.24l.2-.14,5.16-3.75c.1-.08.17-.1.28,0l4.31,3.12,1.06.78a1.24,1.24,0,0,0,0-.19l-2-6.1a.22.22,0,0,1,.1-.31L20,9.13,20.22,9H13.63a.24.24,0,0,1-.28-.2c-.5-1.58-1-3.15-1.53-4.72-.16-.5-.33-1-.51-1.56M0,8.2H8.43c.17,0,.23,0,.28-.21C9.55,5.39,10.39,2.8,11.24.2l.07-.2.08.2Q12.67,4.12,13.93,8a.21.21,0,0,0,.24.17h8.45l-.17.13q-3.33,2.43-6.67,4.85a.21.21,0,0,0-.09.28l2.55,7.83a1.28,1.28,0,0,0,.07.22l-7-5.08-7,5.08c.15-.48.29-.91.43-1.34.73-2.23,1.45-4.46,2.18-6.68a.25.25,0,0,0-.1-.33L.17,8.34,0,8.2" transform="translate(0 0)"/></g></g></g></svg>