<svg xmlns="http://www.w3.org/2000/svg" viewBox="130 0 125 35"><title>brandlogos3</title><g id="Layer_2" data-name="Layer 2"><g id="Layer_1-2" data-name="Layer 1"><g id="g10"><g id="g12"><path id="path14" d="M156.59,9.82h2v-5h-2a8.06,8.06,0,0,0-4.72,14.6c1.43,1.07,1.78,1.87,1.8,2.53A2.79,2.79,0,0,1,151,24.66v5.05a8.06,8.06,0,0,0,7.71-8.05,8.16,8.16,0,0,0-.75-3.42,8.55,8.55,0,0,0-3.21-3,3,3,0,0,1,1.85-5.44h0"/><path id="path16" d="M150.23,29.7V24.65a2.78,2.78,0,0,1-2.68-2.75V12.78h0a8.07,8.07,0,0,0-8.07-8h-2.67v5h2.68a3,3,0,0,1,3,3v1.24a8.07,8.07,0,1,0-3,15.54h2.69v-5h-2.68a3,3,0,1,1,3-3v.16h0v0h0a8,8,0,0,0,7.68,7.93"/><path id="path18" d="M159.35,9.83h5.05V4.78h-5.05Zm0,19.83h5.05V10.59h-5.05V29.66"/><path id="path20" d="M179,24.6h-1.44a7.38,7.38,0,1,1,0-14.76V4.79a12.44,12.44,0,0,0,0,24.87H179V24.6"/><path id="path22" d="M185.39,9.82h2v-5h-2a8.06,8.06,0,0,0-4.72,14.6c1.43,1.07,1.78,1.87,1.8,2.53a2.79,2.79,0,0,1-2.67,2.75v5a8,8,0,0,0,7.71-8,8.16,8.16,0,0,0-.75-3.42,8.55,8.55,0,0,0-3.21-3,3,3,0,0,1,1.85-5.44h0"/><path id="path24" d="M188.15,4.79V9.84h4V29.67h5.05V9.84h4V4.79h-13"/><path id="path26" d="M201.88,9.83h5.05V4.78h-5.05Zm0,19.83h5.05V10.59h-5.05V29.66"/><path id="path28" d="M221.57,29.66v-15h-5v9a7.38,7.38,0,0,1,3.6-13.83h1.08V4.79h-1.08a12.44,12.44,0,0,0,0,24.87h1.44"/><path id="path30" d="M234.5,4.79a12.44,12.44,0,0,0,0,24.87V24.6a7.41,7.41,0,0,1-6.66-4.86h6.66V14.7h-6.66a7.4,7.4,0,0,1,6.66-4.86V4.79"/><path id="path32" d="M245,12.25a2.43,2.43,0,0,1-2.43,2.43H240.3V9.83h2.31A2.43,2.43,0,0,1,245,12.25m.24,7a7.47,7.47,0,0,0-2.68-14.44h-7.36V29.65h5.05V20.1a12.45,12.45,0,0,0,10.57,9.69V24.66a7.4,7.4,0,0,1-5.59-5.45"/></g></g></g></g></svg>