<svg xmlns="http://www.w3.org/2000/svg" fill="#001e62" viewBox="120 0 100 38.13"><defs><style>.cls-1{}</style></defs><title>Asset 12</title><g id="Layer_2" data-name="Layer 2"><g id="Layer_1-2" data-name="Layer 1"><g id="Layer_2-2" data-name="Layer 2"><g id="Layer_1-2-2" data-name="Layer 1-2"><path class="cls-1" d="M137.48,28.47c-.21.77-.4,1.48-.58,2.19-.38,1.45-.78,2.9-1.13,4.35a1.12,1.12,0,0,0,1.12,1.51c.39,0,.79,0,1.18,0,.2,0,.21-.14.24-.26l1.28-4.79c.25-.93.5-1.86.74-2.8,0-.18.12-.25.31-.25.61,0,1.22,0,1.89,0l-2.16,8.08h1.12c.46,0,.92,0,1.38,0,.25,0,.34-.07.41-.31.57-2.16,1.15-4.3,1.72-6.45.1-.36.2-.72.29-1.08,0-.17.11-.26.3-.25.61,0,1.22,0,1.88,0,0,.2-.08.37-.13.54q-1.19,4.44-2.36,8.85a.33.33,0,0,1-.39.29H136a2.27,2.27,0,0,1-2.27-1.4,2.91,2.91,0,0,1,0-1.83c.54-2.08,1.09-4.16,1.65-6.23,0-.08.12-.19.19-.19C136.2,28.46,136.81,28.47,137.48,28.47Z"/><path class="cls-1" d="M200.16,28.46c-.14.53-.28,1-.39,1.47,0,.2-.18.19-.32.19H195.2A2.48,2.48,0,0,0,193,31.3a6.78,6.78,0,0,0-1.12,3.51c0,1,.46,1.56,1.51,1.6.78,0,1.56,0,2.33,0a.26.26,0,0,0,.2-.13c.2-.7.39-1.41.59-2.16h-2.24c.07-.28.13-.53.2-.77s.1-.73.31-.89.6-.05.92-.05h3.36l-.63,2.33c-.28,1-.56,2.08-.83,3.13-.05.21-.14.27-.35.26h-4.95a2.59,2.59,0,0,1-2.76-2.68,9.23,9.23,0,0,1,1.65-5.2A4,4,0,0,1,194,28.61a11,11,0,0,1,1.63-.14c1.37,0,2.74,0,4.11,0Z"/><path class="cls-1" d="M178.74,38.12l.73-2.75c.59-2.2,1.18-4.39,1.76-6.59a.36.36,0,0,1,.42-.32c1.69,0,3.37,0,5.06,0a2.33,2.33,0,0,1,2,.92,2.38,2.38,0,0,1,.34,2c-.38,1.56-.8,3.11-1.2,4.66-.18.67-.36,1.35-.54,2h-2c0-.09,0-.17,0-.25l1.59-6a3.48,3.48,0,0,0,.09-.42,1.14,1.14,0,0,0-1.22-1.38c-.88,0-1.74,0-2.62,0-.22,0-.22.15-.25.28l-1.67,6.23-.41,1.55Z"/><path class="cls-1" d="M175.64,28.49l-3.33,3.06c-.57.52-1.14,1.06-1.72,1.57-.15.13-.14.22,0,.38l2.69,4.31.19.31h-2.35a.37.37,0,0,1-.38-.22c-.84-1.42-1.7-2.84-2.55-4.26l-.2-.31-1.28,4.77h-2a1.77,1.77,0,0,1,0-.23l2.46-9.19a.27.27,0,0,1,.29-.24h0c.58,0,1.17,0,1.79,0L168,33l.05,0,.67-.61,4.13-3.79a.63.63,0,0,1,.37-.17c.73,0,1.46,0,2.18,0Z"/><path class="cls-1" d="M156.18,38.11H154c-.08-.66-.17-1.31-.23-2,0-.23-.09-.31-.33-.31-1.24,0-2.47,0-3.71,0a.38.38,0,0,0-.37.21q-.6,1-1.23,1.91a.38.38,0,0,1-.26.17c-.68,0-1.36,0-2.08,0,.06-.1.11-.18.16-.26l6.33-9.17a.48.48,0,0,1,.47-.24c.55,0,1.09,0,1.64,0,.18,0,.25.05.28.24q.71,4.5,1.43,9C156.15,37.84,156.16,38,156.18,38.11Zm-3.08-7.63-.07,0-2.36,3.65h2.89Z"/><path class="cls-1" d="M161.24,28.46c-.17.62-.32,1.2-.48,1.77-.4,1.5-.79,3-1.2,4.51-.36,1.33.38,1.78,1.4,1.8h3l-.42,1.58H159.9A4.09,4.09,0,0,1,159,38a2.08,2.08,0,0,1-1.59-2.33c.18-1,.44-2.05.7-3.07.33-1.31.69-2.6,1-3.9,0-.18.12-.25.31-.24Z"/><path class="cls-1" d="M176.66,38.11h-2.13l2.58-9.63h2.13Z"/><path class="cls-1" d="M149.43,2.56a5.41,5.41,0,0,0-4-1.87h-6.7l-1.13,4.24h6.31l.6.06a1.42,1.42,0,0,1,.9.5,1.87,1.87,0,0,1,.11,1.59l-.3,1.11h-4c-3.42,0-8.2,2.46-9.26,6.42a5.39,5.39,0,0,0,1,5,6.48,6.48,0,0,0,5,1.94h8.36l2.2-8.2,1.62-6A5,5,0,0,0,149.43,2.56Zm-6.61,14.71h-4a2,2,0,0,1-1.57-.66,1.93,1.93,0,0,1-.3-1.73,3.67,3.67,0,0,1,3.47-2.52h3.68Z"/><path class="cls-1" d="M194.34,4.92h6.08L201.56.69h-6.14a8.09,8.09,0,0,0-4.86,1.55A6.72,6.72,0,0,0,188,6.19c-1,3.68,1.9,5.45,4.23,6.7,1.66.9,3.1,1.68,2.79,2.83-.22.83-.58,1.55-2.63,1.55h-6.25L185,21.51h6.92a7.91,7.91,0,0,0,4.95-1.45,7.72,7.72,0,0,0,2.65-4.35,4.77,4.77,0,0,0-1-4.59,12.5,12.5,0,0,0-3.42-2.38c-1.5-.81-2.91-1.57-2.66-2.49A1.88,1.88,0,0,1,194.34,4.92Z"/><path class="cls-1" d="M162.23,11.12a12.48,12.48,0,0,0-3.42-2.38c-1.5-.81-2.91-1.57-2.66-2.49a1.87,1.87,0,0,1,1.92-1.34h6.08L165.28.69h-6.14a8.09,8.09,0,0,0-4.86,1.55,6.74,6.74,0,0,0-2.6,3.95c-1,3.68,1.91,5.45,4.23,6.7,1.66.9,3.1,1.68,2.79,2.83-.22.83-.58,1.55-2.63,1.55h-6.25l-1.14,4.24h6.92a7.9,7.9,0,0,0,4.95-1.45,7.73,7.73,0,0,0,2.65-4.35A4.78,4.78,0,0,0,162.23,11.12Z"/><polygon class="cls-1" points="168.58 0.69 163.15 21.51 167.73 21.51 173.16 0.69 168.58 0.69"/><path class="cls-1" d="M184.49,4.92h2.46L188.09.69h-2.73A13.61,13.61,0,0,0,171.72,11.1c-1.59,5.94,1.57,10.41,7.35,10.41h3.87l1.13-4.24h-3.87c-2.16,0-5.14-1.7-3.94-6.17A8.59,8.59,0,0,1,184.49,4.92Z"/></g></g></g></g></svg>