<svg xmlns="http://www.w3.org/2000/svg" viewBox="0 0 442.23 38.13"><defs><style>.cls-1{fill:#010101;}</style></defs><title>brandlogos_ajp2</title><g id="Layer_2" data-name="Layer 2"><g id="Layer_1-2" data-name="Layer 1"><path d="M10.74,24.51a2.39,2.39,0,0,1-2.43-3.27c1-3.63,7.59-9,12.06-9,3.26,0,3,2.92,1.1,5.41L20.42,18.8c-3.79,3.72-7.31,5.71-9.68,5.71M26.73,0C21,0,14.73,3.5,10.79,6.8l.31.45c6.13-4.3,14.63-7.09,17-2.9,1.24,2.21-.86,6.68-3.82,10.21C25,13,24.5,10,20.37,10,13.51,10,0,19.1,0,28.4c0,3.73,2.58,6.16,6.84,6.16,11.4,0,26.85-18.68,26.85-28.07,0-3.31-1.91-6.5-7-6.5"/><path d="M41.41,24.51a2,2,0,0,1-1.56-.65,1.92,1.92,0,0,1-.3-1.72A3.66,3.66,0,0,1,43,19.63h3.67l-1.31,4.89ZM51.95,9.86A5.38,5.38,0,0,0,48,8H41.32l-1.13,4.22h6.29l.6.06a1.42,1.42,0,0,1,.9.5,1.86,1.86,0,0,1,.11,1.59l-.3,1.11h-4c-3.41,0-8.16,2.45-9.22,6.4a5.36,5.36,0,0,0,1,4.93,6.47,6.47,0,0,0,5,1.93h8.33l2.19-8.17,1.61-6a5,5,0,0,0-.74-4.7"/><path d="M97.73,8a8.06,8.06,0,0,0-4.84,1.54,6.69,6.69,0,0,0-2.59,3.93c-1,3.66,1.89,5.42,4.21,6.68,1.66.9,3.09,1.67,2.78,2.82-.22.82-.58,1.54-2.62,1.54H88.45l-1.13,4.22h6.89a7.87,7.87,0,0,0,4.93-1.44A7.66,7.66,0,0,0,101.77,23a4.76,4.76,0,0,0-1-4.57A12.42,12.42,0,0,0,97.41,16c-1.49-.8-2.9-1.56-2.65-2.48a1.86,1.86,0,0,1,1.91-1.33h6.05L103.85,8Z"/><path d="M61.61,8a8.06,8.06,0,0,0-4.84,1.54,6.71,6.71,0,0,0-2.59,3.93c-1,3.66,1.9,5.42,4.21,6.68C60,21,61.48,21.82,61.17,23c-.22.82-.58,1.54-2.62,1.54H52.33L51.2,28.73h6.89A7.87,7.87,0,0,0,63,27.29,7.66,7.66,0,0,0,65.65,23a4.77,4.77,0,0,0-1-4.57A12.39,12.39,0,0,0,61.29,16c-1.49-.8-2.9-1.56-2.65-2.48a1.86,1.86,0,0,1,1.91-1.33H66.6L67.73,8Z"/><polygon points="71.01 8 65.61 28.73 70.17 28.73 75.57 8 71.01 8"/><path d="M87.72,8A13.55,13.55,0,0,0,74.14,18.36c-1.58,5.91,1.56,10.37,7.32,10.37h3.86l1.13-4.22H82.59c-2.15,0-5.12-1.7-3.92-6.15a8.55,8.55,0,0,1,8.18-6.15H89.3L90.44,8Z"/><g id="Layer_2-2" data-name="Layer 2"><g id="Layer_1-2-2" data-name="Layer 1-2"><path class="cls-1" d="M137.48,28.47c-.21.77-.4,1.48-.58,2.19-.38,1.45-.78,2.9-1.13,4.35a1.12,1.12,0,0,0,1.12,1.51c.39,0,.79,0,1.18,0,.2,0,.21-.14.24-.26l1.28-4.79c.25-.93.5-1.86.74-2.8,0-.18.12-.25.31-.25.61,0,1.22,0,1.89,0l-2.16,8.08h1.12c.46,0,.92,0,1.38,0,.25,0,.34-.07.41-.31.57-2.16,1.15-4.3,1.72-6.45.1-.36.2-.72.29-1.08,0-.17.11-.26.3-.25.61,0,1.22,0,1.88,0,0,.2-.08.37-.13.54q-1.19,4.44-2.36,8.85a.33.33,0,0,1-.39.29H136a2.27,2.27,0,0,1-2.27-1.4,2.91,2.91,0,0,1,0-1.83c.54-2.08,1.09-4.16,1.65-6.23,0-.08.12-.19.19-.19C136.2,28.46,136.81,28.47,137.48,28.47Z"/><path class="cls-1" d="M200.16,28.46c-.14.53-.28,1-.39,1.47,0,.2-.18.19-.32.19H195.2A2.48,2.48,0,0,0,193,31.3a6.78,6.78,0,0,0-1.12,3.51c0,1,.46,1.56,1.51,1.6.78,0,1.56,0,2.33,0a.26.26,0,0,0,.2-.13c.2-.7.39-1.41.59-2.16h-2.24c.07-.28.13-.53.2-.77s.1-.73.31-.89.6-.05.92-.05h3.36l-.63,2.33c-.28,1-.56,2.08-.83,3.13-.05.21-.14.27-.35.26h-4.95a2.59,2.59,0,0,1-2.76-2.68,9.23,9.23,0,0,1,1.65-5.2A4,4,0,0,1,194,28.61a11,11,0,0,1,1.63-.14c1.37,0,2.74,0,4.11,0Z"/><path class="cls-1" d="M178.74,38.12l.73-2.75c.59-2.2,1.18-4.39,1.76-6.59a.36.36,0,0,1,.42-.32c1.69,0,3.37,0,5.06,0a2.33,2.33,0,0,1,2,.92,2.38,2.38,0,0,1,.34,2c-.38,1.56-.8,3.11-1.2,4.66-.18.67-.36,1.35-.54,2h-2c0-.09,0-.17,0-.25l1.59-6a3.48,3.48,0,0,0,.09-.42,1.14,1.14,0,0,0-1.22-1.38c-.88,0-1.74,0-2.62,0-.22,0-.22.15-.25.28l-1.67,6.23-.41,1.55Z"/><path class="cls-1" d="M175.64,28.49l-3.33,3.06c-.57.52-1.14,1.06-1.72,1.57-.15.13-.14.22,0,.38l2.69,4.31.19.31h-2.35a.37.37,0,0,1-.38-.22c-.84-1.42-1.7-2.84-2.55-4.26l-.2-.31-1.28,4.77h-2a1.77,1.77,0,0,1,0-.23l2.46-9.19a.27.27,0,0,1,.29-.24h0c.58,0,1.17,0,1.79,0L168,33l.05,0,.67-.61,4.13-3.79a.63.63,0,0,1,.37-.17c.73,0,1.46,0,2.18,0Z"/><path class="cls-1" d="M156.18,38.11H154c-.08-.66-.17-1.31-.23-2,0-.23-.09-.31-.33-.31-1.24,0-2.47,0-3.71,0a.38.38,0,0,0-.37.21q-.6,1-1.23,1.91a.38.38,0,0,1-.26.17c-.68,0-1.36,0-2.08,0,.06-.1.11-.18.16-.26l6.33-9.17a.48.48,0,0,1,.47-.24c.55,0,1.09,0,1.64,0,.18,0,.25.05.28.24q.71,4.5,1.43,9C156.15,37.84,156.16,38,156.18,38.11Zm-3.08-7.63-.07,0-2.36,3.65h2.89Z"/><path class="cls-1" d="M161.24,28.46c-.17.62-.32,1.2-.48,1.77-.4,1.5-.79,3-1.2,4.51-.36,1.33.38,1.78,1.4,1.8h3l-.42,1.58H159.9A4.09,4.09,0,0,1,159,38a2.08,2.08,0,0,1-1.59-2.33c.18-1,.44-2.05.7-3.07.33-1.31.69-2.6,1-3.9,0-.18.12-.25.31-.24Z"/><path class="cls-1" d="M176.66,38.11h-2.13l2.58-9.63h2.13Z"/><path class="cls-1" d="M149.43,2.56a5.41,5.41,0,0,0-4-1.87h-6.7l-1.13,4.24h6.31l.6.06a1.42,1.42,0,0,1,.9.5,1.87,1.87,0,0,1,.11,1.59l-.3,1.11h-4c-3.42,0-8.2,2.46-9.26,6.42a5.39,5.39,0,0,0,1,5,6.48,6.48,0,0,0,5,1.94h8.36l2.2-8.2,1.62-6A5,5,0,0,0,149.43,2.56Zm-6.61,14.71h-4a2,2,0,0,1-1.57-.66,1.93,1.93,0,0,1-.3-1.73,3.67,3.67,0,0,1,3.47-2.52h3.68Z"/><path class="cls-1" d="M194.34,4.92h6.08L201.56.69h-6.14a8.09,8.09,0,0,0-4.86,1.55A6.72,6.72,0,0,0,188,6.19c-1,3.68,1.9,5.45,4.23,6.7,1.66.9,3.1,1.68,2.79,2.83-.22.83-.58,1.55-2.63,1.55h-6.25L185,21.51h6.92a7.91,7.91,0,0,0,4.95-1.45,7.72,7.72,0,0,0,2.65-4.35,4.77,4.77,0,0,0-1-4.59,12.5,12.5,0,0,0-3.42-2.38c-1.5-.81-2.91-1.57-2.66-2.49A1.88,1.88,0,0,1,194.34,4.92Z"/><path class="cls-1" d="M162.23,11.12a12.48,12.48,0,0,0-3.42-2.38c-1.5-.81-2.91-1.57-2.66-2.49a1.87,1.87,0,0,1,1.92-1.34h6.08L165.28.69h-6.14a8.09,8.09,0,0,0-4.86,1.55,6.74,6.74,0,0,0-2.6,3.95c-1,3.68,1.91,5.45,4.23,6.7,1.66.9,3.1,1.68,2.79,2.83-.22.83-.58,1.55-2.63,1.55h-6.25l-1.14,4.24h6.92a7.9,7.9,0,0,0,4.95-1.45,7.73,7.73,0,0,0,2.65-4.35A4.78,4.78,0,0,0,162.23,11.12Z"/><polygon class="cls-1" points="168.58 0.69 163.15 21.51 167.73 21.51 173.16 0.69 168.58 0.69"/><path class="cls-1" d="M184.49,4.92h2.46L188.09.69h-2.73A13.61,13.61,0,0,0,171.72,11.1c-1.59,5.94,1.57,10.41,7.35,10.41h3.87l1.13-4.24h-3.87c-2.16,0-5.14-1.7-3.94-6.17A8.59,8.59,0,0,1,184.49,4.92Z"/></g></g><path class="cls-1" d="M235.08,23.87a1.85,1.85,0,0,1-1.87-2.52c.79-2.8,5.85-7,9.31-7,2.52,0,2.33,2.25.85,4.18l-.82.9c-2.93,2.88-5.64,4.41-7.47,4.41ZM247.43,5c-4.41,0-9.26,2.7-12.31,5.25l.24.35c4.73-3.31,11.29-5.47,13.11-2.24,1,1.71-.67,5.15-3,7.88.55-1.2.19-3.51-3-3.51-5.3,0-15.72,7-15.72,14.19,0,2.88,2,4.75,5.28,4.75,8.79,0,20.72-14.42,20.72-21.66,0-2.56-1.47-5-5.37-5Z"/><path class="cls-1" d="M270.42,22.55H262.1v4.61h-3.85V12.62h14a9.6,9.6,0,0,1,5.38,1.3,4.2,4.2,0,0,1,1.95,3.68,4.11,4.11,0,0,1-1.19,3A6.57,6.57,0,0,1,275,22.28l5,4.88h-4.93Zm-8.32-3h9.77a6,6,0,0,0,2.58-.47,1.64,1.64,0,0,0,0-3,6.12,6.12,0,0,0-2.58-.46H262.1Z"/><path class="cls-1" d="M285.52,26.84a6.63,6.63,0,0,1-3-2.28,5.84,5.84,0,0,1-1-3.46V15.63h3.87v5.47A3.1,3.1,0,0,0,286,23a3.79,3.79,0,0,0,1.64,1.25,6,6,0,0,0,2.37.44,6.37,6.37,0,0,0,2.44-.44A3.87,3.87,0,0,0,294.08,23a3,3,0,0,0,.6-1.89V15.63h3.87V21.1a5.83,5.83,0,0,1-1,3.46,6.67,6.67,0,0,1-3,2.28,13.09,13.09,0,0,1-9,0Z"/><path class="cls-1" d="M314.86,15.86a5.86,5.86,0,0,1,3.66,5.67v5.64h-3.87v-5A4,4,0,0,0,314.1,20a3.75,3.75,0,0,0-1.53-1.42,4.77,4.77,0,0,0-2.22-.5,7,7,0,0,0-2.65.48A4.19,4.19,0,0,0,305.83,20a3.85,3.85,0,0,0-.69,2.3v4.82h-3.85V15.63H305v2.53a6,6,0,0,1,2.47-2.2,8.15,8.15,0,0,1,3.73-.81A9.36,9.36,0,0,1,314.86,15.86Z"/><path class="cls-1" d="M328.41,22.63l-2.93,1.95v2.59h-3.85V11h3.85v9.87l7.64-5.26h5.78l-7.56,5.06,7.72,6.48h-5.32Z"/><path class="cls-1" d="M344.31,26.86A7.22,7.22,0,0,1,341,24.65a5.11,5.11,0,0,1-1.13-3.27A5,5,0,0,1,341,18.18a7.38,7.38,0,0,1,3.09-2.23,12.63,12.63,0,0,1,8.81,0A6.9,6.9,0,0,1,356,18.22a5.84,5.84,0,0,1,1.11,3.57v.66l-13.32,0a3,3,0,0,0,1.9,1.81,10.22,10.22,0,0,0,3.81.62,20.1,20.1,0,0,0,3.4-.26q1.51-.26,3.38-.74v2.81q-1.81.46-3.37.72a21.86,21.86,0,0,1-3.55.26A14.66,14.66,0,0,1,344.31,26.86ZM353,20.24a2.93,2.93,0,0,0-1.5-1.85,6,6,0,0,0-3-.7,6.59,6.59,0,0,0-3.14.68,3,3,0,0,0-1.59,1.87Z"/><path class="cls-1" d="M363.61,26.86a7.21,7.21,0,0,1-3.27-2.21,5.1,5.1,0,0,1-1.13-3.27,5,5,0,0,1,1.12-3.21,7.36,7.36,0,0,1,3.09-2.23,12.63,12.63,0,0,1,8.8,0,6.9,6.9,0,0,1,3.06,2.29,5.84,5.84,0,0,1,1.11,3.57v.66l-13.32,0A3,3,0,0,0,365,24.23a10.21,10.21,0,0,0,3.81.62,20.09,20.09,0,0,0,3.4-.26q1.52-.26,3.38-.74v2.81q-1.8.46-3.37.72a21.85,21.85,0,0,1-3.55.26A14.63,14.63,0,0,1,363.61,26.86Zm8.74-6.62a2.92,2.92,0,0,0-1.51-1.85,6,6,0,0,0-3-.7,6.59,6.59,0,0,0-3.14.68,3,3,0,0,0-1.59,1.87Z"/><path class="cls-1" d="M392.93,15.93a7,7,0,0,1,3,2.2,5.5,5.5,0,0,1,0,6.53,6.93,6.93,0,0,1-3,2.21,11,11,0,0,1-4.23.78,10.72,10.72,0,0,1-3.37-.52,6.5,6.5,0,0,1-2.49-1.38v6H379V15.63h3.83v1.47a6.45,6.45,0,0,1,2.48-1.41,10.62,10.62,0,0,1,3.42-.53A11,11,0,0,1,392.93,15.93Zm-7.54,2.44a4.6,4.6,0,0,0-1.93,1.15,2.59,2.59,0,0,0-.73,1.86,2.66,2.66,0,0,0,.73,1.89,4.41,4.41,0,0,0,1.92,1.16,8.53,8.53,0,0,0,2.59.38,7.36,7.36,0,0,0,2.65-.43,3.89,3.89,0,0,0,1.73-1.2,2.85,2.85,0,0,0,.6-1.8,2.81,2.81,0,0,0-.6-1.77,3.9,3.9,0,0,0-1.73-1.2A7.36,7.36,0,0,0,388,18a8.33,8.33,0,0,0-2.59.39Z"/><path class="cls-1" d="M403.4,26.86a7.22,7.22,0,0,1-3.27-2.21A5.11,5.11,0,0,1,399,21.38a5,5,0,0,1,1.12-3.21,7.38,7.38,0,0,1,3.09-2.23,12.63,12.63,0,0,1,8.81,0,6.9,6.9,0,0,1,3.06,2.29,5.84,5.84,0,0,1,1.11,3.57v.66l-13.32,0a3,3,0,0,0,1.91,1.81,10.21,10.21,0,0,0,3.81.62,20.1,20.1,0,0,0,3.4-.26q1.51-.26,3.38-.74v2.81q-1.8.46-3.37.72a21.86,21.86,0,0,1-3.55.26A14.67,14.67,0,0,1,403.4,26.86Zm8.73-6.62a2.93,2.93,0,0,0-1.5-1.85,6,6,0,0,0-3-.7,6.56,6.56,0,0,0-3.14.68,3,3,0,0,0-1.59,1.87Z"/><path class="cls-1" d="M418.93,15.63h3.81V18.5a5.75,5.75,0,0,1,2.9-2.41,12.44,12.44,0,0,1,4.94-.94v3.21a12.68,12.68,0,0,0-3.55.44,7.61,7.61,0,0,0-3,1.53,3.29,3.29,0,0,0-1.22,2.61v4.24h-3.85Z"/><path class="cls-1" d="M434.07,15.26h-1.75v-.59h4.26v.59h-1.75v2.26h-.76Z"/><path class="cls-1" d="M437.22,14.67h.66l1.84,1.67,1.84-1.67h.66v2.85h-.76V15.68L440,17h-.54L438,15.68v1.84h-.75Z"/></g></g></svg>