<svg xmlns="http://www.w3.org/2000/svg" viewBox="0 0 299.74 51.61"><defs><style>.cls-1{fill:#000000;}</style></defs><title>logo-oneasics</title><g id="Layer_2" data-name="Layer 2"><g id="Layer_1-2" data-name="Layer 1"><path class="cls-1" d="M145.1,41.15a4.85,4.85,0,0,1-3.86-1.62,4.75,4.75,0,0,1-.73-4.26,9.05,9.05,0,0,1,8.55-6.22h9.08l-3.24,12.1h-9.8ZM171.21,4.87A13.32,13.32,0,0,0,161.39.25H144.88l-2.8,10.45h15.57l1.49.16a3.49,3.49,0,0,1,2.22,1.23c.64.88.73,2.21.27,3.93l-.74,2.75h-9.81c-8.44,0-20.21,6.05-22.83,15.84a13.28,13.28,0,0,0,2.37,12.21c2.52,3.08,7.26,4.78,12.39,4.78h20.63l5.41-20.22,4-14.87c1.57-5.84-.13-9.55-1.83-11.63ZM284.59.25a20,20,0,0,0-12,3.82,16.59,16.59,0,0,0-6.41,9.74c-2.43,9.06,4.69,13.43,10.42,16.53,4.1,2.23,7.65,4.14,6.88,7-.55,2-1.43,3.82-6.48,3.82H261.6l-2.8,10.45h17.06c4.57,0,8.8-1,12.2-3.57s5.33-6.27,6.52-10.73A11.8,11.8,0,0,0,292.22,26c-2.27-2.53-5.55-4.3-8.43-5.86-3.69-2-7.18-3.87-6.57-6.14a4.6,4.6,0,0,1,4.72-3.29h15L299.74.26H284.59Zm-89.45,0a19.94,19.94,0,0,0-12,3.82,16.63,16.63,0,0,0-6.41,9.74c-2.43,9.06,4.7,13.43,10.42,16.53,4.1,2.23,7.65,4.14,6.89,7-.55,2-1.44,3.82-6.49,3.82H172.15l-2.8,10.45h17.06c4.58,0,8.8-1,12.2-3.57s5.33-6.27,6.52-10.73A11.81,11.81,0,0,0,202.77,26c-2.27-2.53-5.55-4.3-8.44-5.86-3.69-2-7.17-3.87-6.56-6.14a4.6,4.6,0,0,1,4.71-3.29h15L210.28.26H195.14Zm23.28,0L205,51.6h11.3L229.71.25Zm41.37,0c-19.9.07-30.31,13.33-33.62,25.67C222.25,40.57,230,51.6,244.29,51.6h9.55l2.8-10.45H247.1c-5.34,0-12.67-4.2-9.72-15.23,2.35-8.77,10.89-15.22,20.27-15.22h6.06L266.52.25h-6.73Z"/><path class="cls-1" d="M28.39,2h.14c4.78,0,8.91,1.62,11.62,4.47,2.27,2.38,3,6.2,1.9,10.21l-2.16,8-1.12,4.17h0l-1.53,5.67-.09.34c-.93,3.37-3.64,7-7.24,9.83a22.75,22.75,0,0,1-13.75,4.91H16c-4.78,0-8.91-1.62-11.62-4.47-2.27-2.38-3-6.2-1.89-10.21L5,25.46,7.38,16.8C8.29,13.42,11,9.74,14.6,6.94A22.76,22.76,0,0,1,28.39,2M15.93,15.18l-.11.24-.07.12,0,.2c-.47,1.68-4.47,15.95-5.05,19.39a6.31,6.31,0,0,0-.11,1.12c0,.18,0,.36,0,.52s0,.13,0,.17c.3,2.81,2.5,4.9,5.68,5.44a10.41,10.41,0,0,0,1.88.19h.08a11.86,11.86,0,0,0,2.51-.27,10.88,10.88,0,0,0,5-2.39,10,10,0,0,0,2.77-3.45c.13-.26.2-.42.2-.42l.05-.13,0-.12c1.72-6.49,4.57-17.22,4.95-18.86a6,6,0,0,0-.32-4.15C32.87,11.35,31.24,9,26.8,8.93h-.48a11.73,11.73,0,0,0-1.86.15A11.27,11.27,0,0,0,19.56,11a10.15,10.15,0,0,0-3.63,4.18M28.39,0C16.92,0,7.45,8.86,5.45,16.28L3.11,24.94.56,34.41C-.66,38.94.1,43.55,2.94,46.52s7.3,5,13.05,5.09h.16c11.42,0,20.87-8.8,22.92-16.2h0l0-.08h0l2.34-8.66h0l.39-1.46h0l2.16-8c1.22-4.53.46-9.13-2.38-12.11S34.3,0,28.55,0ZM18.23,40.56h-.07a8.36,8.36,0,0,1-1.52-.16c-2.53-.43-3.89-1.95-4.08-3.69,0,0,0-.07,0-.1s0-.23,0-.35a4.42,4.42,0,0,1,.08-.78c.58-3.41,4.73-18.19,5-19.21l0-.06.08-.18a8.18,8.18,0,0,1,2.94-3.38A9.33,9.33,0,0,1,24.75,11a9.8,9.8,0,0,1,1.57-.13h.06l.33,0c3.11.08,4.4,1.35,4.92,2.65a4,4,0,0,1,.22,2.83h0c-.1.63-4.95,18.86-4.95,18.86s0,.11-.14.3a8,8,0,0,1-2.23,2.78,9,9,0,0,1-4.17,2,9.85,9.85,0,0,1-2.11.23Z"/><path class="cls-1" d="M72.52,2.71h.15c4.85,0,9,1.65,11.79,4.53,2.3,2.42,3,6.29,1.93,10.37l-2.19,8.13-1.12,4.16h0l-4.72,18H70.19c2.91-11.37,7.07-27.67,7.54-29.68h0A6.45,6.45,0,0,0,77.42,14c-.59-1.44-2.22-3.78-6.57-3.89H69.63a6.9,6.9,0,0,0-1.09.08,10.89,10.89,0,0,0-4.83,1.73,11.66,11.66,0,0,0-3.6,4.7l-.06.14,0,.15L51.43,48.59H43.36L48.44,28,51.2,17.72c.92-3.43,3.66-7.17,7.32-10a23.09,23.09,0,0,1,14-5m0-2c-11.62,0-21.22,9-23.25,16.5L46.51,27.45l-5.7,23.14H53l9-33.24a9.51,9.51,0,0,1,2.89-3.85,9.12,9.12,0,0,1,4-1.4,5,5,0,0,1,.8-.05h.81l.32,0c3.05.08,4.33,1.41,4.84,2.69a4.43,4.43,0,0,1,.21,3h0c-.1.62-8.19,32.2-8.19,32.2H79.93l5.8-22.2h0l.4-1.48h0l2.19-8.13c1.24-4.59.46-9.25-2.41-12.27S78.51.75,72.68.71Z"/><path class="cls-1" d="M128.33,3.08,126.75,9H111.51a13.94,13.94,0,0,0-1.85.18,8,8,0,0,0-3.77,1.64,9,9,0,0,0-3,5l-1.13,4.6-.6,2.48h21.93l-1.57,5.9H99.84l-.36,1.54-1.08,4.6c-.55,2.33-.3,4.2.75,5.59a5.53,5.53,0,0,0,3.62,2h0l1.49.16h14.43l-1.25,5.9H101.06a11.39,11.39,0,0,1-8.12-3.77c-1.41-1.67-2.85-4.67-1.69-9.51l1.41-5.79,2.89-12.2a18,18,0,0,1,6.79-10.15,19.73,19.73,0,0,1,10.59-4.08h15.41m2.61-2h-18a21.55,21.55,0,0,0-11.8,4.48h0A20,20,0,0,0,93.6,16.84L90.71,29.06,89.3,34.83c-1.35,5.66.4,9.26,2.11,11.28h0a13.33,13.33,0,0,0,9.65,4.48h18l2.1-9.9H104.46L103,40.53a3.6,3.6,0,0,1-2.24-1.22c-.66-.88-.79-2.2-.39-3.92l1.08-4.6h21.68l2.64-9.9h-22l1.13-4.6a7,7,0,0,1,2.27-3.92A6,6,0,0,1,110,11.14a12.09,12.09,0,0,1,1.57-.16h16.73l2.66-9.9Z"/></g></g></svg>
