<svg xmlns="http://www.w3.org/2000/svg" viewBox="0 0 409.06 94.99"><title>brandlogos1</title><g id="Layer_2" data-name="Layer 2" fill="#FFFFFF"><g id="Layer_1-2" data-name="Layer 1"><g id="g10"><g id="g12"><path id="path14" d="M156.59,13.93h2v-5h-2a8.06,8.06,0,0,0-4.72,14.6c1.43,1.07,1.78,1.87,1.8,2.53A2.79,2.79,0,0,1,151,28.78v5.05a8.06,8.06,0,0,0,7.71-8.05,8.16,8.16,0,0,0-.75-3.42,8.55,8.55,0,0,0-3.21-3,3,3,0,0,1,1.85-5.44h0"/><path id="path16" d="M150.23,33.82V28.77A2.78,2.78,0,0,1,147.55,26V16.9h0a8.07,8.07,0,0,0-8.07-8h-2.67v5h2.68a3,3,0,0,1,3,3V18.2a8.07,8.07,0,1,0-3,15.54h2.69v-5h-2.68a3,3,0,1,1,3-3v.16h0v0h0a8,8,0,0,0,7.68,7.93"/><path id="path18" d="M159.35,13.94h5.05V8.89h-5.05Zm0,19.83h5.05V14.71h-5.05V33.77"/><path id="path20" d="M179,28.72h-1.44a7.38,7.38,0,1,1,0-14.76V8.9a12.44,12.44,0,0,0,0,24.87H179V28.72"/><path id="path22" d="M185.39,13.93h2v-5h-2a8.06,8.06,0,0,0-4.72,14.6c1.43,1.07,1.78,1.87,1.8,2.53a2.79,2.79,0,0,1-2.67,2.75v5a8,8,0,0,0,7.71-8,8.16,8.16,0,0,0-.75-3.42,8.55,8.55,0,0,0-3.21-3,3,3,0,0,1,1.85-5.44h0"/><path id="path24" d="M188.15,8.9V14h4V33.79h5.05V14h4V8.9h-13"/><path id="path26" d="M201.88,13.94h5.05V8.89h-5.05Zm0,19.83h5.05V14.71h-5.05V33.77"/><path id="path28" d="M221.57,33.77v-15h-5v9A7.38,7.38,0,0,1,220.14,14h1.08V8.9h-1.08a12.44,12.44,0,0,0,0,24.87h1.44"/><path id="path30" d="M234.5,8.9a12.44,12.44,0,0,0,0,24.87V28.72a7.41,7.41,0,0,1-6.66-4.86h6.66V18.81h-6.66A7.4,7.4,0,0,1,234.5,14V8.9"/><path id="path32" d="M245,16.37a2.43,2.43,0,0,1-2.43,2.43H240.3V13.94h2.31A2.43,2.43,0,0,1,245,16.37m.24,7a7.47,7.47,0,0,0-2.68-14.44h-7.36V33.76h5.05V24.21a12.45,12.45,0,0,0,10.57,9.69V28.78a7.4,7.4,0,0,1-5.59-5.45"/></g></g><path d="M287.84,23.19c-1.57,2.88-.41,3.84.11,4.31,1.46-.81,1.71-3.57,1.75-4.65Zm25.89-2.55c-.52-.1-.88,1-1.11,1.8l1.38-.28c.46-1,.23-1.41-.27-1.52m-35-6.74s0,12,0,15.84,2.54,5.15,5.09,5.16c0,0,9.58-.11,13.27,0s6.88,2.2,8.67,3.36c1.79-1.16,5-3.22,8.68-3.35s13.27,0,13.27,0c2.56,0,5.1-1.28,5.11-5.15s0-15.84,0-15.84Zm16.58,14.29c-.39,1.32-3,2.65-5.2,2.74s-5.26-.88-5.27-4.78c0-3.28,3.49-4.71,4.21-4.76-.14.21-.62.82-.62.82l4.62-1c.15,0,.2,0,.2.19a25.09,25.09,0,0,1-.59,3.31,2.92,2.92,0,0,1-1,1.71c-.62.5-2.52,1.89-2.52,1.89a4,4,0,0,0,3.26.74s2.12-7.8,2.14-8.79c-1.35.46-5.17,0-8.49,1.31.31-1.35,1.59-2.69,4.12-3.22s6.52-.44,8.77-1.36c0,.66-.09,1.61-3.33,3.17-.58,1.59-1.94,7.44-2.11,8.55a15.91,15.91,0,0,0,1.86-.55m2.55,1.12c-1-.14-.93-1.18-.95-1.45a10.3,10.3,0,0,1,.36-1.82c.1-.32.53-1.26,0-1.85l1.42-1.11c.71.13,1.52.15,1.32,1.16s-.53,2.5-.58,2.8-.23.74.79.68c-.54.78-1.33,1.72-2.35,1.59m1.64-7.19-1.43-.8,1.51-1.2,1.44.76Zm8,4.7a3.71,3.71,0,0,1-2.09,2.83,2.9,2.9,0,0,1-3.84-.37l2-1.7c1.33,1.28,1.88.38,2.28-.31-1.34-1.79.13-3.29.74-4a1.93,1.93,0,0,1-1.31-.19c-.17.12-1.21,1.07-1.25,1.77s.54,1,1.17,1.28l-2,1.58a3.07,3.07,0,0,1-1.13-2.08c.11-1.77,1.7-2.9,1.86-3.12s1.76-1.2,2.67-.83A5.4,5.4,0,0,0,309,22c-.76.72-1.18,3.37-1.53,4.8m9-4.87c-.06.41,0,.68-.91.86s-1.8.31-3,.48c-.65,1.11-.4,1.45.24,1.53a6.85,6.85,0,0,0,2.31-.49c-.31.32-2.12,2-3.32,1.79-1.65-.34-2-1.49-1.53-3.18a4.12,4.12,0,0,1,4-3.16,1.88,1.88,0,0,1,2.16,2.16m8.42-2.37c-.28.19-.42.17-.79.1s-1.31-.3-1.6-.35a1.63,1.63,0,0,0-1.5.9,4.77,4.77,0,0,0-.55,1.92c0,.71,0,.81,1.74.23-.47.69-2,2.49-3.66,2.39,0,0-1.08.06-.86-1.14s.55-3.27.68-3.63.8-1.31,1.36-1.27a1.86,1.86,0,0,1,1.27.74l2.28-1.54a19.41,19.41,0,0,0,3.17.52,12.69,12.69,0,0,1-1.54,1.14"/><path d="M278.45,9.07a4.37,4.37,0,1,1,8.73,0,4.37,4.37,0,1,1-8.73,0m3.32,0c0,1.18.34,2.24.9,2.24s.91-1.05.92-2.23-.36-2.25-.92-2.25-.91,1.06-.9,2.24"/><path d="M290.64,8a3.38,3.38,0,0,1,2.08-.82c1.57,0,1.84.75,1.84,1.57v2.53h.64v1.62h-3V9.58c0-.68-.39-.79-.74-.79a.73.73,0,0,0-.83.79v1.69h.65v1.61h-3.56V11.27h.64V8.95h-.64V7.34h2.93V8Z"/><path d="M299.54,12.89H296V11.27h.64V9H296V7.35h2.94v3.92h.65Zm-3.3-6.46V4.69h2.66V6.43Z"/><path d="M303.18,7.36H304V9h-.77v1.67c0,.44.12.52.45.52H304v1.73h-1.68c-.91,0-1.39-.42-1.39-1.31V9h-.64V7.36h.64V5.67h2.29V7.36Z"/><path d="M306,12.89h-1.3V11.4H306a1.6,1.6,0,0,0,.36.43,1.09,1.09,0,0,0,.69.2c.51,0,.71-.13.71-.53s-.79-.43-1.57-.65-1.57-.61-1.57-1.7a1.93,1.93,0,0,1,2.17-2,2.33,2.33,0,0,1,1.53.53V7.36h1.28V8.93h-1.3a1,1,0,0,0-.37-.51,1.18,1.18,0,0,0-.68-.21c-.43,0-.61.27-.61.51,0,.47.77.53,1.53.74s1.55.58,1.55,1.7c0,1.39-1.08,1.91-2.34,1.9a2.33,2.33,0,0,1-1.39-.46Z"/><path d="M315,12.2a3.41,3.41,0,0,1-2.25.87c-1.14,0-1.69-.55-1.69-1.64V9h-.59V7.36h2.94v3.4c0,.47.24.64.73.64.83,0,.83-.45.83-1.2V9h-.64V7.36h2.93v3.93h.57V12.9H315v-.7Z"/><polygon points="318.38 11.29 318.99 11.29 319 6.32 318.41 6.32 318.41 4.72 321.29 4.72 321.3 9.84 322.23 8.86 321.84 8.86 321.83 7.37 325.08 7.37 325.08 8.86 324.49 8.86 323.57 9.67 324.88 11.29 325.16 11.29 325.16 12.91 323 12.9 321.29 10.69 321.29 12.91 318.38 12.91 318.38 11.29"/><path d="M326.49,7.54a11.75,11.75,0,0,1,2.82-.4c.47,0,3,0,2.92,4.17h.39v1.62h-2.68v-.2a6.84,6.84,0,0,1-2,.34,1.86,1.86,0,0,1-2.11-1.93c0-1.87,2.11-1.89,2.5-1.89a5.45,5.45,0,0,1,1.63.35c0-.74-.38-1.46-3.22-.85Zm1.41,3.62a.75.75,0,0,0,.78.77c.62,0,.95-.35,1-.73,0-.61-.53-.79-1-.79a.7.7,0,0,0-.76.75"/><path d="M10.74,28.63a2.39,2.39,0,0,1-2.43-3.27c1-3.63,7.59-9,12.06-9,3.26,0,3,2.92,1.1,5.41l-1.06,1.17c-3.79,3.72-7.31,5.71-9.68,5.71m16-24.51c-5.71,0-12,3.5-15.95,6.8l.31.45c6.13-4.3,14.63-7.09,17-2.9,1.24,2.21-.86,6.68-3.82,10.21.71-1.56.24-4.55-3.88-4.55C13.51,14.13,0,23.22,0,32.52c0,3.73,2.58,6.16,6.84,6.16,11.4,0,26.85-18.68,26.85-28.07,0-3.31-1.91-6.5-7-6.5"/><path d="M41.41,28.63A2,2,0,0,1,39.85,28a1.92,1.92,0,0,1-.3-1.72A3.66,3.66,0,0,1,43,23.74h3.67l-1.31,4.89ZM51.95,14a5.38,5.38,0,0,0-4-1.87H41.32l-1.13,4.22h6.29l.6.06a1.42,1.42,0,0,1,.9.5,1.86,1.86,0,0,1,.11,1.59l-.3,1.11h-4c-3.41,0-8.16,2.45-9.22,6.4a5.36,5.36,0,0,0,1,4.93,6.47,6.47,0,0,0,5,1.93h8.33l2.19-8.17,1.61-6a5,5,0,0,0-.74-4.7"/><path d="M97.73,12.11a8.06,8.06,0,0,0-4.84,1.54,6.69,6.69,0,0,0-2.59,3.93c-1,3.66,1.89,5.42,4.21,6.68,1.66.9,3.09,1.67,2.78,2.82-.22.82-.58,1.54-2.62,1.54H88.45l-1.13,4.22h6.89a7.87,7.87,0,0,0,4.93-1.44,7.66,7.66,0,0,0,2.63-4.33,4.76,4.76,0,0,0-1-4.57,12.42,12.42,0,0,0-3.4-2.36c-1.49-.8-2.9-1.56-2.65-2.48a1.86,1.86,0,0,1,1.91-1.33h6.05l1.13-4.22Z"/><path d="M61.61,12.11a8.06,8.06,0,0,0-4.84,1.54,6.71,6.71,0,0,0-2.59,3.93c-1,3.66,1.9,5.42,4.21,6.68,1.66.9,3.09,1.67,2.78,2.82-.22.82-.58,1.54-2.62,1.54H52.33L51.2,32.85h6.89A7.87,7.87,0,0,0,63,31.41a7.66,7.66,0,0,0,2.63-4.33,4.77,4.77,0,0,0-1-4.57,12.39,12.39,0,0,0-3.41-2.36c-1.49-.8-2.9-1.56-2.65-2.48a1.86,1.86,0,0,1,1.91-1.33H66.6l1.13-4.22Z"/><polygon points="71.01 12.11 65.61 32.85 70.17 32.85 75.57 12.11 71.01 12.11"/><path d="M87.72,12.11A13.55,13.55,0,0,0,74.14,22.48c-1.58,5.91,1.56,10.37,7.32,10.37h3.86l1.13-4.22H82.59c-2.15,0-5.12-1.7-3.92-6.15a8.55,8.55,0,0,1,8.18-6.15H89.3l1.13-4.22Z"/><g id="_Group_" data-name="&lt;Group&gt;"><path id="_Compound_Path_" data-name="&lt;Compound Path&gt;" d="M187.37,84.54a5.17,5.17,0,0,1-4,1.65,6.15,6.15,0,1,1,0-12.3c3.43,0,5.74,2.75,5.74,6.14a4.53,4.53,0,0,1-.11,1.21h-9.55A4.27,4.27,0,0,0,183.36,84a3.49,3.49,0,0,0,2-.59Zm-.58-5.48a3.53,3.53,0,0,0-3.43-3,3.94,3.94,0,0,0-3.92,3Z"/><path id="_Path_" data-name="&lt;Path&gt;" d="M121.11,74c-3.35,0-5.16,1.81-5.16,5.1v6.56h2.2V79.15a3,3,0,0,1,5.92,0v6.56h2.2V79.15C126.27,75.86,124.46,74,121.11,74Z"/><path id="_Compound_Path_2" data-name="&lt;Compound Path&gt;" d="M169.77,74a6.08,6.08,0,0,0-6.08,6.08h0l-.19,12.66h2.18l.19-8A6.07,6.07,0,1,0,169.77,74Zm0,10a3.9,3.9,0,1,1,3.9-3.9A3.9,3.9,0,0,1,169.77,84Z"/><path id="_Path_2" data-name="&lt;Path&gt;" d="M109.31,86.19c3.35,0,5.16-1.81,5.16-5.1V74.53h-2.2v6.56a3,3,0,0,1-5.92,0V74.53h-2.2v6.56C104.15,84.38,106,86.19,109.31,86.19Z"/><path id="_Compound_Path_3" data-name="&lt;Compound Path&gt;" d="M134.41,74.71H138l-6.65,5.43L138,85.71h-3.52l-4.36-3.59v3.59h-2.23V68.11h2.23V78.19Z"/><path id="_Compound_Path_4" data-name="&lt;Compound Path&gt;" d="M147.61,84.54a5.17,5.17,0,0,1-4,1.65,6.15,6.15,0,1,1,0-12.3c3.43,0,5.74,2.75,5.74,6.14a4.53,4.53,0,0,1-.11,1.21h-9.55A4.27,4.27,0,0,0,143.6,84a3.49,3.49,0,0,0,2-.59ZM147,79.07a3.53,3.53,0,0,0-3.43-3,3.94,3.94,0,0,0-3.92,3Z"/><path id="_Compound_Path_5" data-name="&lt;Compound Path&gt;" d="M160.67,84.54a5.17,5.17,0,0,1-4,1.65,6.15,6.15,0,1,1,0-12.3c3.43,0,5.74,2.75,5.74,6.14a4.53,4.53,0,0,1-.11,1.21h-9.55A4.27,4.27,0,0,0,156.66,84a3.49,3.49,0,0,0,2-.59Zm-.58-5.48a3.53,3.53,0,0,0-3.43-3,3.94,3.94,0,0,0-3.92,3Z"/><g id="_Group_2" data-name="&lt;Group&gt;"><path id="_Path_3" data-name="&lt;Path&gt;" d="M100.58,74c-3.35,0-5.16,1.81-5.16,5.1v6.56h2.2V79.15a2.69,2.69,0,0,1,3-2.93,3.93,3.93,0,0,1,1,.13L103,74.47A6.53,6.53,0,0,0,100.58,74Z"/></g><g id="_Group_3" data-name="&lt;Group&gt;"><path id="_Path_4" data-name="&lt;Path&gt;" d="M195.74,74c-3.35,0-5.16,1.81-5.16,5.1v6.56h2.2V79.15a2.69,2.69,0,0,1,3-2.93,3.93,3.93,0,0,1,1,.13L198,74.47A5.76,5.76,0,0,0,195.74,74Z"/></g></g><g id="_Group_4" data-name="&lt;Group&gt;"><path id="_Path_5" data-name="&lt;Path&gt;" d="M66.07,82.19c-1,2.51-.85,4-.34,4.16s2.42-.89,3.1-3.86A9.32,9.32,0,0,0,68.58,78,17.21,17.21,0,0,0,66.07,82.19Z"/><path id="_Compound_Path_6" data-name="&lt;Compound Path&gt;" d="M72.22,64.06A15.47,15.47,0,1,0,87.69,79.53,15.47,15.47,0,0,0,72.22,64.06Zm-.8,17.28a1.43,1.43,0,0,1,1.44-1.44,1.28,1.28,0,0,1,1.27.76,4.26,4.26,0,0,1-1.27,0v-.08a.21.21,0,0,0-.42,0c0,.13,0,.17.17.21a3.86,3.86,0,0,0,1.57,0,4.51,4.51,0,0,0,2.46-1.66,3.51,3.51,0,0,0,.17-3.61,2.69,2.69,0,0,0-2.12-1.27A7.16,7.16,0,0,0,70,76.46a10.52,10.52,0,0,1,.17,8C69,87.07,67,88.13,66,88.13c-1.23,0-2.84-.76-2.42-3.74a15.53,15.53,0,0,1,3.82-7.86,10.62,10.62,0,0,1,.93.89,11.17,11.17,0,0,0-.59-1.32A11.77,11.77,0,0,0,66.16,74a1.55,1.55,0,0,1-.3-.59,1.78,1.78,0,0,0-.35-.66l0,0-1.74-1.83a.39.39,0,0,1,.55-.55L66,72.13a2.18,2.18,0,0,0,.93.38,1,1,0,0,1,.51.25,14.1,14.1,0,0,1,1,1.19,6.07,6.07,0,0,1,.59.85c0-.08.13-.13.17-.17a7.75,7.75,0,0,1,6-2.12,4.41,4.41,0,0,1,3.61,3.27,5.48,5.48,0,0,1-1,4.93,5.69,5.69,0,0,1-3.61,2,5.39,5.39,0,0,1-2-.08A1.41,1.41,0,0,1,71.42,81.34Zm11.12-.74-.6,2.46h0s0,0,0,0a2,2,0,0,0,0,1,1.05,1.05,0,0,1,0,.47v0h0l-.06.19a5,5,0,0,1-2,2.51,5.18,5.18,0,0,1-5.52,0,6,6,0,0,1-2.21-4.32,4.88,4.88,0,0,0,2.08.34c0,.25.55,3,3.06,3,2.17-.08,2.84-2.25,2.93-2.34a1,1,0,0,1,.3-.38,2.62,2.62,0,0,0,.56-.65h0l0-.06.66-2.39a.38.38,0,0,1,.72.21Z"/></g><path d="M232.46,80.92a1.86,1.86,0,0,1-1.88-2.54c.79-2.82,5.89-7,9.36-7,2.53,0,2.34,2.27.86,4.2l-.82.91c-2.94,2.89-5.67,4.44-7.51,4.44m12.41-19c-4.43,0-9.31,2.72-12.38,5.29l.24.35c4.76-3.34,11.36-5.51,13.18-2.25,1,1.72-.67,5.19-3,7.93.55-1.21.19-3.54-3-3.54-5.33,0-15.81,7.06-15.81,14.29,0,2.9,2,4.79,5.31,4.79,8.84,0,20.84-14.52,20.84-21.81,0-2.57-1.48-5-5.4-5"/><path d="M256,85V81.68a40.43,40.43,0,0,0,10.19,1.49c5.32,0,7-.54,7-1.67s-2.29-1.45-4.37-1.63l-6.4-.6c-2.74-.25-6.75-1-6.75-4.46,0-3,3.74-4.52,10.67-4.52a52.31,52.31,0,0,1,10.09,1v3.2a48.77,48.77,0,0,0-10-1.12c-5.06,0-6.54.48-6.54,1.41,0,1.16,2.15,1.32,3.86,1.47l6,.56c3.78.35,7.7,1.26,7.7,4.67,0,3.68-5.08,4.81-11.16,4.81A41.33,41.33,0,0,1,256,85"/><path d="M293,79.51V73.87h4v5.64c0,2.23,2,3.7,4.79,3.68s4.79-1.45,4.79-3.68V73.87h4v5.64c0,4.11-3.4,6.74-8.77,6.74S293,83.63,293,79.51"/><path d="M312.43,79.82c0-3.86,3.65-6.45,8.5-6.45a9.11,9.11,0,0,1,6,2V69.28h4V85.75H327V84.25a9,9,0,0,1-6.07,2c-4.87,0-8.5-2.56-8.5-6.43m14.65,0c0-2.4-2.64-3.53-5.41-3.53-3.2,0-5.12,1.43-5.12,3.53s1.92,3.51,5.12,3.51c2.77,0,5.41-1.16,5.41-3.51"/><rect x="333.83" y="73.87" width="3.96" height="11.88"/><path d="M340.42,79.82c0-3.68,3.86-6.45,9.41-6.45s9.43,2.77,9.43,6.45-3.86,6.43-9.43,6.43-9.41-2.73-9.41-6.43m14.71,0c0-1.9-2.19-3.53-5.3-3.53s-5.28,1.63-5.28,3.53,2.17,3.51,5.28,3.51,5.3-1.55,5.3-3.51"/><path d="M279.81,73.87v7.5c0,3.29,3,4.88,6.75,4.88a19.37,19.37,0,0,0,3.67-.29l0-3.08a20.25,20.25,0,0,1-3.05.29c-1.69,0-3.45-.56-3.45-2.6v-3.8h6.52V73.87Z"/><polygon points="283.75 72.62 283.75 70.09 279.81 71.19 279.81 72.62 283.75 72.62"/><path d="M406.38,41.73c-.33,0-.64.16-.64.5s.3.47,1.2.76,2.13.78,2.13,2.11a2.5,2.5,0,0,1-2.72,2.37,3.37,3.37,0,0,1-3-1.84l1.53-.82a1.7,1.7,0,0,0,1.46,1c.36,0,.81-.14.81-.57s-.66-.61-1.63-1a2.19,2.19,0,0,1-1.69-2,2.29,2.29,0,0,1,2.46-2.19,3,3,0,0,1,2.39,1.21l-1.14,1A1.74,1.74,0,0,0,406.38,41.73Zm-5.14,5.62h-1.91V41.84H398.2v-1.7h1.13v-.66a2.57,2.57,0,0,1,2.59-2.54h1v1.81h-.79a.81.81,0,0,0-.87.85v.55H403v1.7h-1.79Zm-7.32.12a3.69,3.69,0,0,1-3.7-3.69h0a3.7,3.7,0,1,1,7.39,0h0a3.69,3.69,0,0,1-3.68,3.71Zm0-5.52a1.82,1.82,0,0,0-1.79,1.83,1.79,1.79,0,1,0,3.58,0A1.82,1.82,0,0,0,393.91,41.94Zm1.75-2.67a1.07,1.07,0,0,1-1.07-1.07h0a1.07,1.07,0,1,1,1.07,1.07Zm-2.44-1.07a1.07,1.07,0,1,1-2.14,0h0a1.07,1.07,0,1,1,2.14,0Zm-.07-10.82a2.4,2.4,0,0,1-2.4-2.4h0V19.52a2.4,2.4,0,0,1,2.4-2.4h0a2.4,2.4,0,0,1,2.39,2.4h0V25a2.4,2.4,0,0,1-2.39,2.4Zm0-17.12a2.4,2.4,0,0,1-2.39-2.4h0V2.4A2.4,2.4,0,0,1,393.15,0h0a2.4,2.4,0,0,1,2.4,2.4V7.86a2.4,2.4,0,0,1-2.39,2.4ZM387.4,16.1H382a2.4,2.4,0,0,1-2.4-2.4h0a2.4,2.4,0,0,1,2.39-2.4h5.44a2.4,2.4,0,0,1,2.4,2.4h0a2.4,2.4,0,0,1-2.4,2.4Zm-3.68,24.8v-.76h1.86v6.47a3.78,3.78,0,0,1-3.86,4,3.85,3.85,0,0,1-2.66-1l1.22-1.31a2.42,2.42,0,0,0,1.44.52,2,2,0,0,0,2-1.89v-.34a2.78,2.78,0,0,1-2,.84,3.69,3.69,0,0,1,0-7.37A2.82,2.82,0,0,1,383.73,40.9Zm-3.61,2.87a1.81,1.81,0,0,0,3.63,0A1.8,1.8,0,0,0,382,41.94h0a1.81,1.81,0,0,0-1.81,1.81Zm-3.9-33.5a2.4,2.4,0,0,1-2.39-2.4h0V2.4A2.4,2.4,0,0,1,376.22,0h0a2.4,2.4,0,0,1,2.4,2.4V7.86a2.4,2.4,0,0,1-2.39,2.4Zm0,6.86a2.4,2.4,0,0,1,2.4,2.4h0V25a2.4,2.4,0,1,1-4.79,0h0V19.52a2.4,2.4,0,0,1,2.39-2.4Zm-1.09,23H377v7.21h-1.86v-.72a2.77,2.77,0,0,1-2,.84,3.71,3.71,0,0,1,0-7.41,2.82,2.82,0,0,1,2,.84Zm-1.8,1.81a1.81,1.81,0,0,0-1.81,1.81v0a1.81,1.81,0,1,0,1.86-1.83Zm-6.9,1.12h-4.18v4.29h-2V36.93h2v4.22h4.18V36.93h2V47.35h-2ZM389,47.35h-1.91V36.93H389Z"/></g></g></svg>
