<?xml version="1.0" encoding="UTF-8"?>
<svg width="25px" height="21px" viewBox="0 0 25 21" version="1.1" xmlns="http://www.w3.org/2000/svg" xmlns:xlink="http://www.w3.org/1999/xlink">
    <!-- Generator: Sketch 46.2 (44496) - http://www.bohemiancoding.com/sketch -->
    <title>eye-disable</title>
    <desc>Created with Sketch.</desc>
    <defs></defs>
    <g id="finals---specs" stroke="none" stroke-width="1" fill="none" fill-rule="evenodd">
        <g id="input-field-examples" transform="translate(-280.000000, -288.000000)" fill="#9B9B9B">
            <g id="Group-Copy-4" transform="translate(15.000000, 44.000000)">
                <g id="eyes" transform="translate(264.000000, 243.000000)">
                    <g id="eye-disable" transform="translate(0.246377, 0.978547)">
                        <path d="M25.2766667,10.4424263 C25.1683333,10.2490053 23.4802899,7.30237368 20.2487681,5.15853158 L19.4426087,5.97826842 C22.0922464,7.67779474 23.7023913,9.99000526 24.1813768,10.7426895 C23.5063768,12.0196368 20.2375362,17.3934263 13.0357246,17.3934263 C11.4632609,17.3934263 10.0817391,17.1370053 8.87594203,16.7232684 L8.04007246,17.5728474 C9.46326087,18.1376368 11.1219565,18.4986895 13.0357246,18.4986895 C21.7426087,18.4986895 25.2625362,11.0245316 25.2973188,10.9490053 L25.4154348,10.6903737 L25.2766667,10.4424263 Z" id="Fill-6"></path>
                        <path d="M11.1580797,14.4026211 L10.3656884,15.2079895 C11.1577174,15.7049895 12.0859783,15.9971474 13.0827174,15.9971474 C15.9464855,15.9971474 18.276558,13.6278316 18.276558,10.7158316 C18.276558,9.70230526 17.9892391,8.75804211 17.500471,7.95304211 L16.708442,8.75914737 C17.0146014,9.34309474 17.1896014,10.0088316 17.1896014,10.7158316 C17.1896014,13.0184632 15.3472101,14.8918842 13.0827174,14.8918842 C12.3874275,14.8918842 11.7327174,14.7139368 11.1580797,14.4026211 Z" id="Fill-9"></path>
                        <path d="M9.58126812,12.8817789 C9.2001087,12.2495684 8.97619565,11.5101474 8.97619565,10.7158316 C8.97619565,8.4132 10.8182246,6.53977895 13.0827174,6.53977895 C13.8635145,6.53977895 14.5903261,6.76746316 15.2117029,7.15430526 L9.58126812,12.8817789 Z M13.0356159,4.0382 C14.6642391,4.0382 16.1232971,4.38377895 17.4117029,4.91651579 L15.9979348,6.35446316 C15.166413,5.77641053 14.1642391,5.43451579 13.0827174,5.43451579 C10.2193116,5.43451579 7.88923913,7.80383158 7.88923913,10.7158316 C7.88923913,11.8159368 8.22583333,12.8357263 8.79467391,13.6816211 L6.76387681,15.7477263 C3.86713768,14.0544632 2.39757246,11.5532526 1.98054348,10.7423579 C2.74177536,9.51441053 6.50518116,4.0382 13.0356159,4.0382 Z M16.8316304,7.07067368 C16.8316304,7.07067368 17.3763164,6.51644561 18.4656884,5.40798947 C18.4656884,5.40798947 18.7396014,5.12970877 19.2874275,4.57314737 C19.287186,4.57290175 20.5223309,3.31621754 22.9928623,0.803094737 L22.2243841,0.0216736842 L18.2537319,4.06030526 C16.7511957,3.38462105 15.0146014,2.93293684 13.0356159,2.93293684 C5.08525362,2.93293684 1.0540942,10.1407263 0.88634058,10.4476211 L0.753731884,10.6904105 L0.866050725,10.9435158 C0.888514493,10.9936211 2.41242754,14.3138316 5.98887681,16.5354105 L2.52365942,20.0604632 L3.29213768,20.8418842 L16.0631522,7.85172632 L16.8316304,7.07067368 Z" id="Fill-11"></path>
                    </g>
                </g>
            </g>
        </g>
    </g>
</svg>