<svg xmlns="http://www.w3.org/2000/svg" id="Layer_1" viewBox="17.669994354248047 125.29000091552734 749.7400512695312 98.92000579833984"><style>.st0{fill:#282829}</style><path class="st0" d="M94.2 125.29c-16.34.01-34.35 10.01-45.65 19.48l.89 1.29c17.54-12.3 41.89-20.29 48.6-8.3 3.54 6.33-2.48 19.11-10.95 29.21 2.03-4.46.69-13.03-11.12-13.03-19.64 0-58.3 26.02-58.3 52.64 0 10.67 7.4 17.63 19.58 17.63 32.62 0 76.86-53.47 76.86-80.33.01-9.49-5.45-18.59-19.91-18.59m-45.78 70.15c-5.64 0-8.35-4.34-6.94-9.36 2.93-10.4 21.72-25.82 34.52-25.82 9.34 0 8.63 8.36 3.16 15.49l-3.03 3.35c-10.85 10.65-20.91 16.34-27.71 16.34m155.69-15.61c0-11.34-12.89-21.86-35.34-21.86-22.45 0-35.34 10.52-35.34 21.86 0 11.19 12.9 21.86 35.34 21.86 22.44 0 35.34-10.67 35.34-21.86m-78.4 0c0-15.34 16.67-28.53 43.05-28.53s43.05 13.19 43.05 28.53c0 15.26-16.67 28.53-43.05 28.53s-43.05-13.27-43.05-28.53m330.25 24.08v-7.11c9.26 2.59 20.08 4.89 34.9 4.89 17.49 0 28.83-2.37 28.83-9.34 0-7.33-10.75-8.67-20.38-9.56l-20.97-2c-10.59-.96-22.38-3.56-22.38-14.74 0-9.04 11.11-14.75 36.46-14.75 14.59 0 26.6 2.07 32.38 3.26v6.59c-5.48-1.18-17.56-3.19-32.45-3.19-22.08 0-28.68 3.11-28.68 8 0 6.82 8.82 7.63 15.19 8.3l21.26 2.08c12.45 1.26 27.27 3.63 27.27 16 0 12.15-16.53 16.01-36.53 16.01-17.19.01-28.82-2.96-34.9-4.44m87.72-50.83h7.41v53.5h-7.41zm22.97 26.98c-.19-18.6 19.72-28.58 45.06-28.83 11.78-.12 23.8 1.54 30.48 3.18l.07 6.74c-8.24-1.99-19.74-3.28-30.56-3.18-19.19.19-37.51 6.15-37.35 22.01.16 15.86 18.6 21.82 37.79 21.63 10.81-.11 22.28-2 30.49-4.08l.07 6.59c-6.5 1.77-18.63 4.04-30.41 4.16-25.35.26-45.46-9.7-45.64-28.22m89.86 23.85v-7.11c9.26 2.59 20.08 4.89 34.9 4.89 17.49 0 28.83-2.37 28.83-9.34 0-7.33-10.75-8.67-20.38-9.56l-20.97-2c-10.59-.96-22.38-3.56-22.38-14.74 0-9.04 11.11-14.75 36.46-14.75 14.59 0 26.6 2.07 32.38 3.26v6.59c-5.48-1.18-17.56-3.19-32.45-3.19-22.08 0-28.68 3.11-28.68 8 0 6.82 8.82 7.63 15.19 8.3l21.26 2.08c12.45 1.26 27.27 3.63 27.27 16 0 12.15-16.53 16.01-36.53 16.01-17.19.01-28.82-2.96-34.9-4.44m-374.16-17.97v20.15h-7.41v-20.3c0-10.52-8.3-17.49-19.26-17.49-13.41 0-25.12 6.74-25.12 19.04v18.75h-7.41v-42.38h6.97l-.07 11.49c4.96-9.41 15.41-13.26 25.64-13.26 15.84-.01 26.66 9.77 26.66 24m63.01-4.08c-1.78-8.37-10.37-13.71-22.75-13.71-12.82 0-21.49 5.41-23.04 13.71h45.79zm-53.05 3.12c0-12.89 12-23.04 30.38-23.04 17.93 0 30.3 9.56 30.3 23.64v2.22h-53.42c1.7 10 12.74 13.85 25.78 13.85 10.67 0 18.37-2.15 24.16-3.78v6.52c-5.04 1.48-13.04 3.48-24.16 3.48-19.11 0-33.04-7.78-33.04-22.89m122.61-24.89l-4.41 5.65 15.45 21.28h-30.71l-4.84 6.67h40.44l9.48 12.89h8.53zm-12.1-6.98l-38.94 53.14h8.75l38.93-53.14zm336.39.53h-6.06v-2.03h14.75v2.03h-6.06v7.8h-2.62v-7.8zm10.9-2.03h2.29l6.36 5.79 6.36-5.79h2.29v9.83h-2.6v-6.33l-5.1 4.63h-1.9l-5.1-4.63v6.33h-2.6v-9.83z"/><script xmlns=""/></svg>