<svg id="Layer_1" data-name="Layer 1" xmlns="http://www.w3.org/2000/svg" viewBox="0 0 511.73 48.33"><title>brandlogos_asics_apps_blue</title><g id="Layer_2" data-name="Layer 2"><g id="Layer_1-2" data-name="Layer 1-2"><path d="M130.27,29.68a1.85,1.85,0,0,1-1.87-2.52c.79-2.8,5.85-7,9.31-7,2.52,0,2.33,2.25.85,4.18l-.82.9c-2.93,2.88-5.64,4.41-7.47,4.41Zm12.3-18.91c-4.41,0-9.26,2.7-12.31,5.25l.24.35c4.77-3.31,11.3-5.52,13.11-2.24,1,1.71-.67,5.15-3,7.88.55-1.2.19-3.51-3-3.51-5.3,0-15.72,7-15.72,14.19,0,2.88,2,4.75,5.28,4.75,8.79,0,20.72-14.42,20.72-21.66,0-2.56-1.47-5-5.37-5Z" style="fill:#001e63"/><path d="M165.56,28.37h-8.29V33h-3.88V18.44h14a9.6,9.6,0,0,1,5.38,1.3,4.2,4.2,0,0,1,1.95,3.68,4.11,4.11,0,0,1-1.19,3,6.57,6.57,0,0,1-3.38,1.67l5,4.88h-5Zm-8.32-3H167a6,6,0,0,0,2.58-.47,1.64,1.64,0,0,0,0-3,6.12,6.12,0,0,0-2.58-.46h-9.74Z" style="fill:#001e63"/><path d="M180.66,32.66a6.63,6.63,0,0,1-3-2.28,5.84,5.84,0,0,1-1-3.46V21.45h3.87v5.47a3.1,3.1,0,0,0,.59,1.87A3.79,3.79,0,0,0,182.76,30a6,6,0,0,0,2.37.44,6.37,6.37,0,0,0,2.44-.44,3.87,3.87,0,0,0,1.7-1.19,3,3,0,0,0,.6-1.89V21.45h3.87v5.47a5.83,5.83,0,0,1-1,3.46,6.67,6.67,0,0,1-3,2.28,13.09,13.09,0,0,1-9,0Z" style="fill:#001e63"/><path d="M210,21.68a5.86,5.86,0,0,1,3.66,5.67V33h-3.87V28a4,4,0,0,0-.51-2.14,3.75,3.75,0,0,0-1.53-1.42,4.77,4.77,0,0,0-2.22-.5,7,7,0,0,0-2.65.48,4.19,4.19,0,0,0-1.9,1.44,3.85,3.85,0,0,0-.69,2.3V33h-3.86V21.45h3.67V24a6,6,0,0,1,2.47-2.2,8.15,8.15,0,0,1,3.73-.81A9.36,9.36,0,0,1,210,21.68Z" style="fill:#001e63"/><path d="M223.54,28.45l-2.93,1.95V33h-3.84V16.85h3.85v9.87l7.65-5.27H234l-7.56,5.06L234.21,33h-5.32Z" style="fill:#001e63"/><path d="M239.45,32.68a7.22,7.22,0,0,1-3.27-2.21A5.11,5.11,0,0,1,235,27.2,5,5,0,0,1,236.17,24a7.38,7.38,0,0,1,3.1-2.22,12.63,12.63,0,0,1,8.81,0,6.9,6.9,0,0,1,3.06,2.29,5.84,5.84,0,0,1,1.13,3.55v.66H238.95a3,3,0,0,0,1.9,1.81,10.22,10.22,0,0,0,3.81.62,20.1,20.1,0,0,0,3.4-.26q1.51-.26,3.38-.74v2.81q-1.81.46-3.37.72a21.86,21.86,0,0,1-3.55.26A14.66,14.66,0,0,1,239.45,32.68Zm8.73-6.62a2.93,2.93,0,0,0-1.5-1.85,6,6,0,0,0-3-.7,6.59,6.59,0,0,0-3.14.68,3,3,0,0,0-1.59,1.87Z" style="fill:#001e63"/><path d="M258.74,32.68a7.21,7.21,0,0,1-3.27-2.21,5.1,5.1,0,0,1-1.13-3.27A5,5,0,0,1,255.46,24a7.36,7.36,0,0,1,3.09-2.23,12.63,12.63,0,0,1,8.8,0A6.9,6.9,0,0,1,270.41,24a5.84,5.84,0,0,1,1.11,3.57v.66H258.2a3,3,0,0,0,1.91,1.81,10.21,10.21,0,0,0,3.81.62,20.09,20.09,0,0,0,3.4-.26q1.52-.26,3.38-.74v2.81q-1.8.46-3.37.72a21.85,21.85,0,0,1-3.55.26A14.63,14.63,0,0,1,258.74,32.68Zm8.74-6.62A2.92,2.92,0,0,0,266,24.21a6,6,0,0,0-3-.7,6.59,6.59,0,0,0-3.14.68,3,3,0,0,0-1.56,1.88Z" style="fill:#001e63"/><path d="M288.06,21.75a7,7,0,0,1,3,2.2,5.5,5.5,0,0,1,0,6.53,6.93,6.93,0,0,1-3,2.21,11,11,0,0,1-4.23.78,10.72,10.72,0,0,1-3.37-.52A6.5,6.5,0,0,1,278,31.57v6H274.1V21.45h3.83v1.47a6.45,6.45,0,0,1,2.48-1.41,10.62,10.62,0,0,1,3.42-.53A11,11,0,0,1,288.06,21.75Zm-7.54,2.44a4.6,4.6,0,0,0-1.93,1.15,2.59,2.59,0,0,0-.73,1.86,2.66,2.66,0,0,0,.73,1.89,4.41,4.41,0,0,0,1.92,1.16,8.53,8.53,0,0,0,2.59.38,7.36,7.36,0,0,0,2.65-.43,3.89,3.89,0,0,0,1.73-1.2,2.85,2.85,0,0,0,.6-1.8,2.81,2.81,0,0,0-.6-1.77,3.9,3.9,0,0,0-1.73-1.2,7.36,7.36,0,0,0-2.65-.43,8.33,8.33,0,0,0-2.59.39Z" style="fill:#001e63"/><path d="M298.54,32.68a7.22,7.22,0,0,1-3.27-2.21,5.11,5.11,0,0,1-1.13-3.27A5,5,0,0,1,295.27,24a7.38,7.38,0,0,1,3.09-2.23,12.63,12.63,0,0,1,8.81,0A6.9,6.9,0,0,1,310.23,24a5.84,5.84,0,0,1,1.11,3.57v.66H298a3,3,0,0,0,1.91,1.81,10.21,10.21,0,0,0,3.81.62,20.1,20.1,0,0,0,3.4-.26q1.51-.26,3.38-.74v2.81q-1.8.46-3.37.72a21.86,21.86,0,0,1-3.55.26A14.67,14.67,0,0,1,298.54,32.68Zm8.73-6.62a2.93,2.93,0,0,0-1.5-1.85,6,6,0,0,0-3-.7,6.56,6.56,0,0,0-3.14.68A3,3,0,0,0,298,26.06Z" style="fill:#001e63"/><path d="M314.07,21.45h3.81v2.87a5.75,5.75,0,0,1,2.9-2.41,12.44,12.44,0,0,1,4.94-.94v3.21a12.68,12.68,0,0,0-3.55.44,7.61,7.61,0,0,0-3,1.53,3.29,3.29,0,0,0-1.22,2.61V33h-3.88Z" style="fill:#001e63"/><path d="M329.21,21.07h-1.75v-.59h4.26v.59H330v2.26h-.76Z" style="fill:#001e63"/><path d="M332.36,20.49H333l1.84,1.67,1.84-1.67h.66v2.85h-.76V21.5l-1.46,1.35h-.54l-1.47-1.34v1.84h-.75Z" style="fill:#001e63"/></g></g><path d="M21.13,30a1.94,1.94,0,0,1-2-2.66c.81-3,6.17-7.32,9.8-7.32,2.65,0,2.44,2.37.89,4.4l-.86,1c-3.08,3-5.94,4.64-7.87,4.64m13-19.93c-4.64,0-9.76,2.85-13,5.53l.25.37c5-3.5,11.89-5.76,13.82-2.36,1,1.8-.7,5.43-3.11,8.3.58-1.27.2-3.7-3.15-3.7-5.59,0-16.58,7.37-16.58,14.93,0,3,2.1,5,5.56,5,9.27,0,21.83-15.19,21.83-22.82,0-2.69-1.55-5.28-5.69-5.28" style="fill:#001e63"/><path d="M46.07,30a1.63,1.63,0,0,1-1.27-.51,1.56,1.56,0,0,1-.24-1.4,3,3,0,0,1,2.8-2.07h3l-1.07,4Zm8.57-11.89a4.37,4.37,0,0,0-3.25-1.52H46l-.92,3.43h5.11l.49,0a1.15,1.15,0,0,1,.73.41,1.51,1.51,0,0,1,.09,1.29l-.24.9H48c-2.77,0-6.63,2-7.5,5.2a4.36,4.36,0,0,0,.81,4,5.26,5.26,0,0,0,4.06,1.57h6.77l1.78-6.64L55.24,22a4.06,4.06,0,0,0-.6-3.82" style="fill:#001e63"/><path d="M91.85,16.62a6.55,6.55,0,0,0-3.93,1.25,5.44,5.44,0,0,0-2.11,3.2c-.81,3,1.54,4.41,3.42,5.43,1.35.73,2.51,1.36,2.26,2.29C91.32,29.46,91,30,89.37,30H84.31l-.92,3.43H89a6.4,6.4,0,0,0,4-1.17,6.23,6.23,0,0,0,2.14-3.52,3.87,3.87,0,0,0-.81-3.72,10.1,10.1,0,0,0-2.76-1.92c-1.21-.65-2.36-1.27-2.15-2A1.51,1.51,0,0,1,91,20h4.92l.92-3.43Z" style="fill:#001e63"/><path d="M62.49,16.62a6.55,6.55,0,0,0-3.93,1.25,5.46,5.46,0,0,0-2.11,3.2c-.81,3,1.54,4.41,3.42,5.43,1.35.73,2.51,1.36,2.26,2.29C62,29.46,61.66,30,60,30H54.94L54,33.48h5.6a6.4,6.4,0,0,0,4-1.17,6.23,6.23,0,0,0,2.14-3.52,3.88,3.88,0,0,0-.81-3.72,10.07,10.07,0,0,0-2.77-1.92c-1.21-.65-2.36-1.27-2.15-2a1.51,1.51,0,0,1,1.55-1.08h5l.92-3.43Z" style="fill:#001e63"/><polygon points="70.13 16.62 65.74 33.48 69.45 33.48 73.84 16.62 70.13 16.62" style="fill:#001e63"/><path d="M83.71,16.62a11,11,0,0,0-11,8.43c-1.28,4.8,1.27,8.43,6,8.43h3.14L82.68,30H79.54c-1.75,0-4.16-1.38-3.19-5A7,7,0,0,1,83,20h2l.92-3.43Z" style="fill:#001e63"/><path d="M363.63,29.77a1.86,1.86,0,0,1-1.88-2.54c.79-2.82,5.88-7,9.34-7,2.53,0,2.34,2.26.85,4.2l-.82.91c-2.94,2.89-5.66,4.43-7.5,4.43m12.38-19c-4.42,0-9.29,2.71-12.35,5.28l.24.35c4.75-3.33,11.33-5.5,13.15-2.25,1,1.72-.67,5.18-3,7.91.55-1.21.19-3.53-3-3.53-5.31,0-15.77,7-15.77,14.26,0,2.89,2,4.78,5.3,4.78,8.83,0,20.8-14.48,20.8-21.76,0-2.57-1.48-5-5.39-5" style="fill:#001e63"/><path d="M387.11,33.87V30.53A40.34,40.34,0,0,0,397.27,32c5.31,0,7-.54,7-1.67s-2.29-1.44-4.37-1.63l-6.38-.6c-2.74-.25-6.73-.95-6.73-4.45,0-3,3.73-4.52,10.65-4.52a52.2,52.2,0,0,1,10.07,1v3.2a48.66,48.66,0,0,0-10-1.11c-5,0-6.53.47-6.53,1.4,0,1.15,2.14,1.32,3.85,1.46l6,.56c3.77.35,7.68,1.26,7.68,4.66,0,3.67-5.07,4.8-11.14,4.8A41.24,41.24,0,0,1,387.2,33.9" style="fill:#001e63"/><path d="M424.06,28.41V22.74h4v5.67c0,2.23,2,3.69,4.78,3.67s4.78-1.44,4.78-3.67V22.74h4v5.67c0,4.1-3.4,6.72-8.75,6.72s-8.75-2.62-8.75-6.72" style="fill:#001e63"/><path d="M443.43,28.68c0-3.86,3.64-6.43,8.48-6.43a9.09,9.09,0,0,1,6,2v-6h4V34.59H458v-1.5a8.94,8.94,0,0,1-6,2c-4.86,0-8.48-2.56-8.48-6.41m14.62,0c0-2.39-2.64-3.53-5.4-3.53-3.19,0-5.11,1.42-5.11,3.53s1.91,3.51,5.11,3.51c2.76,0,5.4-1.15,5.4-3.51" style="fill:#001e63"/><rect x="464.78" y="22.74" width="3.95" height="11.85" style="fill:#001e63"/><path d="M471.35,28.68c0-3.67,3.85-6.43,9.39-6.43s9.41,2.76,9.41,6.43-3.85,6.41-9.41,6.41-9.39-2.72-9.39-6.41m14.68,0c0-1.9-2.18-3.53-5.29-3.53s-5.27,1.63-5.27,3.53,2.16,3.51,5.27,3.51S486,30.64,486,28.68" style="fill:#001e63"/><path d="M410.88,22.74v7.48c0,3.28,3,4.87,6.73,4.87a19.33,19.33,0,0,0,3.67-.29V31.73a20.2,20.2,0,0,1-3,.29c-1.69,0-3.44-.56-3.44-2.6V25.63h6.51V22.74Z" style="fill:#001e63"/><polygon points="414.81 21.49 414.81 18.97 410.88 20.06 410.88 21.49 414.81 21.49" style="fill:#001e63"/><polygon points="490.13 20.04 488.65 20.04 488.65 19.55 492.23 19.55 492.23 20.04 490.76 20.04 490.76 21.93 490.13 21.93 490.13 20.04" style="fill:#001e63"/><polygon points="492.77 19.55 493.32 19.55 494.87 20.95 496.41 19.55 496.96 19.55 496.96 21.93 496.33 21.93 496.33 20.39 495.1 21.52 494.64 21.52 493.4 20.39 493.4 21.93 492.77 21.93 492.77 19.55" style="fill:#001e63"/></svg>