<?xml version="1.0" encoding="utf-8"?>
<!-- Generator: Adobe Illustrator 19.0.0, SVG Export Plug-In . SVG Version: 6.00 Build 0)  -->
<svg version="1.1" id="Layer_1" xmlns="http://www.w3.org/2000/svg" xmlns:xlink="http://www.w3.org/1999/xlink" x="0px" y="0px"
	 viewBox="0 0 120.8 120.5" style="enable-background:new 0 0 120.8 120.5;" xml:space="preserve">
<style type="text/css">
	.st0{fill:#001e63;stroke:#001e63;stroke-width:3;stroke-miterlimit:10;}
</style>
<g id="XMLID_2_">
	<path id="XMLID_3_" class="st0" d="M115.7,17.9H90.7V4.4c0-1.1-0.9-1.9-1.9-1.9c-0.3,0-0.6,0.1-0.9,0.2l-28,14.9L32,2.7
		c-0.9-0.5-2.1-0.1-2.6,0.8c-0.1,0.3-0.2,0.6-0.2,0.9v13.5H2.2V41H6v77h107.8V41h3.8V17.9z M86.9,7.6v10.3H67.6L86.9,7.6z
		 M71.5,37.2H48.4V21.8h23.1V37.2z M33,7.6l19.2,10.3H33V7.6z M6,21.8h38.5v15.4H6V21.8z M9.9,114.2V41h34.6v73.1H9.9z M48.4,114.2
		V41h23.1v73.1H48.4z M110,114.2H75.3V41H110V114.2z M113.8,37.2H75.3V21.8h38.5V37.2z"/>
</g>
</svg>
