<svg id="Layer_1" data-name="Layer 1" xmlns="http://www.w3.org/2000/svg" viewBox="0 0 524.99 99.19"><defs><style>.cls-1{fill:#fff;}.cls-2{fill:#f8485e;}</style></defs><title>ASICS Studio primary logo</title><path class="cls-1" d="M74.33,90.82c-5.66,0-8.38-4.35-7-9.39C70.31,71,89.15,55.54,102,55.54c9.37,0,8.65,8.38,3.17,15.53l-3,3.36c-10.88,10.68-21,16.39-27.79,16.39m45.9-70.34c-16.39,0-34.44,10-45.77,19.53l0.9,1.29C92.94,29,117.36,20.95,124.09,33c3.55,6.35-2.48,19.16-11,29.29,2-4.47.69-13.06-11.15-13.06-19.7,0-58.46,26.09-58.46,52.78,0,10.7,7.41,17.68,19.63,17.68,32.71,0,77.07-53.62,77.07-80.54,0-9.51-5.47-18.64-20-18.64" transform="translate(-43.51 -20.47)"/><path class="cls-2" d="M161.38,99.87V87.5C171.22,90,184.2,93,199.08,93c19.69,0,25.87-2,25.87-6.18,0-4.66-8.47-5.34-16.18-6l-23.66-2.21c-10.15-.92-25-3.51-25-16.48,0-11,13.81-16.71,39.46-16.71A193.66,193.66,0,0,1,236.93,49V60.79a180.53,180.53,0,0,0-37.17-4.12c-18.7,0-24.19,1.76-24.19,5.19,0,4.27,7.94,4.88,14.27,5.42l22.06,2.06c14,1.3,28.47,4.66,28.47,17.25,0,13.58-18.77,17.78-41.29,17.78A153,153,0,0,1,161.38,99.87Z" transform="translate(-43.51 -20.47)"/><path class="cls-2" d="M298.3,79.49V58.66H313V79.49c0,8.24,7.4,13.66,17.71,13.58,10.3,0.08,17.71-5.34,17.71-13.58V58.66h14.73V79.49c0,15.19-12.59,24.88-32.43,24.88S298.3,94.68,298.3,79.49Z" transform="translate(-43.51 -20.47)"/><path class="cls-2" d="M370.09,80.64c0-14.27,13.51-23.81,31.44-23.81,9.08,0,17.78,2.9,22.28,7.25V46.69h14.73v55.85H424V97c-4.5,4.35-12.82,7.4-22.44,7.4C383.52,104.37,370.09,94.91,370.09,80.64Zm54.18,0c0-8.85-9.77-13-20-13-11.83,0-18.93,5.27-18.93,13,0,7.56,7.1,13,18.93,13C414.51,93.61,424.27,89.34,424.27,80.64Z" transform="translate(-43.51 -20.47)"/><path class="cls-2" d="M449.21,58.66h14.65v43.88H449.21V58.66Z" transform="translate(-43.51 -20.47)"/><path class="cls-2" d="M473.58,80.64c0-13.58,14.27-23.81,34.8-23.81s34.88,10.23,34.88,23.81S529,104.37,508.38,104.37,473.58,94.3,473.58,80.64Zm54.41,0c0-7-8.09-13-19.61-13s-19.54,6-19.54,13c0,7.25,8,13,19.54,13S528,87.89,528,80.64Z" transform="translate(-43.51 -20.47)"/><path class="cls-2" d="M249.46,58.66v27.7c0,12.13,11,18,25,18A71.73,71.73,0,0,0,288,103.3l0.08-11.37A75,75,0,0,1,276.78,93C270.52,93,264,90.94,264,83.38v-14h24.12V58.66H249.46Z" transform="translate(-43.51 -20.47)"/><polygon class="cls-2" points="220.53 33.57 220.53 24.22 205.95 28.27 205.95 33.57 220.53 33.57"/><path class="cls-2" d="M543.15,48.66H537.7V46.83h13.25v1.83H545.5v7h-2.35v-7Z" transform="translate(-43.51 -20.47)"/><path class="cls-2" d="M552.94,46.83H555l5.72,5.2,5.72-5.2h2.06v8.83h-2.34V50l-4.58,4.16h-1.71L555.28,50v5.69h-2.34V46.83Z" transform="translate(-43.51 -20.47)"/></svg>