<svg xmlns="http://www.w3.org/2000/svg" viewBox="0 0 409.06 88.75"><defs></defs><title>brandlogos_1</title><g id="Layer_2" data-name="Layer 2" fill="#000000"><g id="Layer_1-2" data-name="Layer 1"><g id="g10"><g id="g12"><path id="path14" d="M156.59,13.93h2v-5h-2a8.06,8.06,0,0,0-4.72,14.6c1.43,1.07,1.78,1.87,1.8,2.53A2.79,2.79,0,0,1,151,28.78v5.05a8.06,8.06,0,0,0,7.71-8.05,8.16,8.16,0,0,0-.75-3.42,8.55,8.55,0,0,0-3.21-3,3,3,0,0,1,1.85-5.44h0"/><path id="path16" d="M150.23,33.82V28.77A2.78,2.78,0,0,1,147.55,26V16.9h0a8.07,8.07,0,0,0-8.07-8h-2.67v5h2.68a3,3,0,0,1,3,3V18.2a8.07,8.07,0,1,0-3,15.54h2.69v-5h-2.68a3,3,0,1,1,3-3v.16h0v0h0a8,8,0,0,0,7.68,7.93"/><path id="path18" d="M159.35,13.94h5.05V8.89h-5.05Zm0,19.83h5.05V14.71h-5.05V33.77"/><path id="path20" d="M179,28.72h-1.44a7.38,7.38,0,1,1,0-14.76V8.9a12.44,12.44,0,0,0,0,24.87H179V28.72"/><path id="path22" d="M185.39,13.93h2v-5h-2a8.06,8.06,0,0,0-4.72,14.6c1.43,1.07,1.78,1.87,1.8,2.53a2.79,2.79,0,0,1-2.67,2.75v5a8,8,0,0,0,7.71-8,8.16,8.16,0,0,0-.75-3.42,8.55,8.55,0,0,0-3.21-3,3,3,0,0,1,1.85-5.44h0"/><path id="path24" d="M188.15,8.9V14h4V33.79h5.05V14h4V8.9h-13"/><path id="path26" d="M201.88,13.94h5.05V8.89h-5.05Zm0,19.83h5.05V14.71h-5.05V33.77"/><path id="path28" d="M221.57,33.77v-15h-5v9A7.38,7.38,0,0,1,220.14,14h1.08V8.9h-1.08a12.44,12.44,0,0,0,0,24.87h1.44"/><path id="path30" d="M234.5,8.9a12.44,12.44,0,0,0,0,24.87V28.72a7.41,7.41,0,0,1-6.66-4.86h6.66V18.81h-6.66A7.4,7.4,0,0,1,234.5,14V8.9"/><path id="path32" d="M245,16.37a2.43,2.43,0,0,1-2.43,2.43H240.3V13.94h2.31A2.43,2.43,0,0,1,245,16.37m.24,7a7.47,7.47,0,0,0-2.68-14.44h-7.36V33.76h5.05V24.21a12.45,12.45,0,0,0,10.57,9.69V28.78a7.4,7.4,0,0,1-5.59-5.45"/></g></g><path d="M287.84,23.19c-1.57,2.88-.41,3.84.11,4.31,1.46-.81,1.71-3.57,1.75-4.65Zm25.89-2.55c-.52-.1-.88,1-1.11,1.8l1.38-.28c.46-1,.23-1.41-.27-1.52m-35-6.74s0,12,0,15.84,2.54,5.15,5.09,5.16c0,0,9.58-.11,13.27,0s6.88,2.2,8.67,3.36c1.79-1.16,5-3.22,8.68-3.35s13.27,0,13.27,0c2.56,0,5.1-1.28,5.11-5.15s0-15.84,0-15.84Zm16.58,14.29c-.39,1.32-3,2.65-5.2,2.74s-5.26-.88-5.27-4.78c0-3.28,3.49-4.71,4.21-4.76-.14.21-.62.82-.62.82l4.62-1c.15,0,.2,0,.2.19a25.09,25.09,0,0,1-.59,3.31,2.92,2.92,0,0,1-1,1.71c-.62.5-2.52,1.89-2.52,1.89a4,4,0,0,0,3.26.74s2.12-7.8,2.14-8.79c-1.35.46-5.17,0-8.49,1.31.31-1.35,1.59-2.69,4.12-3.22s6.52-.44,8.77-1.36c0,.66-.09,1.61-3.33,3.17-.58,1.59-1.94,7.44-2.11,8.55a15.91,15.91,0,0,0,1.86-.55m2.55,1.12c-1-.14-.93-1.18-.95-1.45a10.3,10.3,0,0,1,.36-1.82c.1-.32.53-1.26,0-1.85l1.42-1.11c.71.13,1.52.15,1.32,1.16s-.53,2.5-.58,2.8-.23.74.79.68c-.54.78-1.33,1.72-2.35,1.59m1.64-7.19-1.43-.8,1.51-1.2,1.44.76Zm8,4.7a3.71,3.71,0,0,1-2.09,2.83,2.9,2.9,0,0,1-3.84-.37l2-1.7c1.33,1.28,1.88.38,2.28-.31-1.34-1.79.13-3.29.74-4a1.93,1.93,0,0,1-1.31-.19c-.17.12-1.21,1.07-1.25,1.77s.54,1,1.17,1.28l-2,1.58a3.07,3.07,0,0,1-1.13-2.08c.11-1.77,1.7-2.9,1.86-3.12s1.76-1.2,2.67-.83A5.4,5.4,0,0,0,309,22c-.76.72-1.18,3.37-1.53,4.8m9-4.87c-.06.41,0,.68-.91.86s-1.8.31-3,.48c-.65,1.11-.4,1.45.24,1.53a6.85,6.85,0,0,0,2.31-.49c-.31.32-2.12,2-3.32,1.79-1.65-.34-2-1.49-1.53-3.18a4.12,4.12,0,0,1,4-3.16,1.88,1.88,0,0,1,2.16,2.16m8.42-2.37c-.28.19-.42.17-.79.1s-1.31-.3-1.6-.35a1.63,1.63,0,0,0-1.5.9,4.77,4.77,0,0,0-.55,1.92c0,.71,0,.81,1.74.23-.47.69-2,2.49-3.66,2.39,0,0-1.08.06-.86-1.14s.55-3.27.68-3.63.8-1.31,1.36-1.27a1.86,1.86,0,0,1,1.27.74l2.28-1.54a19.41,19.41,0,0,0,3.17.52,12.69,12.69,0,0,1-1.54,1.14"/><path d="M278.45,9.07a4.37,4.37,0,1,1,8.73,0,4.37,4.37,0,1,1-8.73,0m3.32,0c0,1.18.34,2.24.9,2.24s.91-1.05.92-2.23-.36-2.25-.92-2.25-.91,1.06-.9,2.24"/><path d="M290.64,8a3.38,3.38,0,0,1,2.08-.82c1.57,0,1.84.75,1.84,1.57v2.53h.64v1.62h-3V9.58c0-.68-.39-.79-.74-.79a.73.73,0,0,0-.83.79v1.69h.65v1.61h-3.56V11.27h.64V8.95h-.64V7.34h2.93V8Z"/><path d="M299.54,12.89H296V11.27h.64V9H296V7.35h2.94v3.92h.65Zm-3.3-6.46V4.69h2.66V6.43Z"/><path d="M303.18,7.36H304V9h-.77v1.67c0,.44.12.52.45.52H304v1.73h-1.68c-.91,0-1.39-.42-1.39-1.31V9h-.64V7.36h.64V5.67h2.29V7.36Z"/><path d="M306,12.89h-1.3V11.4H306a1.6,1.6,0,0,0,.36.43,1.09,1.09,0,0,0,.69.2c.51,0,.71-.13.71-.53s-.79-.43-1.57-.65-1.57-.61-1.57-1.7a1.93,1.93,0,0,1,2.17-2,2.33,2.33,0,0,1,1.53.53V7.36h1.28V8.93h-1.3a1,1,0,0,0-.37-.51,1.18,1.18,0,0,0-.68-.21c-.43,0-.61.27-.61.51,0,.47.77.53,1.53.74s1.55.58,1.55,1.7c0,1.39-1.08,1.91-2.34,1.9a2.33,2.33,0,0,1-1.39-.46Z"/><path d="M315,12.2a3.41,3.41,0,0,1-2.25.87c-1.14,0-1.69-.55-1.69-1.64V9h-.59V7.36h2.94v3.4c0,.47.24.64.73.64.83,0,.83-.45.83-1.2V9h-.64V7.36h2.93v3.93h.57V12.9H315v-.7Z"/><polygon points="318.38 11.29 318.99 11.29 319 6.32 318.41 6.32 318.41 4.72 321.29 4.72 321.3 9.84 322.23 8.86 321.84 8.86 321.83 7.37 325.08 7.37 325.08 8.86 324.49 8.86 323.57 9.67 324.88 11.29 325.16 11.29 325.16 12.91 323 12.9 321.29 10.69 321.29 12.91 318.38 12.91 318.38 11.29"/><path d="M326.49,7.54a11.75,11.75,0,0,1,2.82-.4c.47,0,3,0,2.92,4.17h.39v1.62h-2.68v-.2a6.84,6.84,0,0,1-2,.34,1.86,1.86,0,0,1-2.11-1.93c0-1.87,2.11-1.89,2.5-1.89a5.45,5.45,0,0,1,1.63.35c0-.74-.38-1.46-3.22-.85Zm1.41,3.62a.75.75,0,0,0,.78.77c.62,0,.95-.35,1-.73,0-.61-.53-.79-1-.79a.7.7,0,0,0-.76.75"/><path d="M10.74,28.63a2.39,2.39,0,0,1-2.43-3.27c1-3.63,7.59-9,12.06-9,3.26,0,3,2.92,1.1,5.41l-1.06,1.17c-3.79,3.72-7.31,5.71-9.68,5.71m16-24.51c-5.71,0-12,3.5-15.95,6.8l.31.45c6.13-4.3,14.63-7.09,17-2.9,1.24,2.21-.86,6.68-3.82,10.21.71-1.56.24-4.55-3.88-4.55C13.51,14.13,0,23.22,0,32.52c0,3.73,2.58,6.16,6.84,6.16,11.4,0,26.85-18.68,26.85-28.07,0-3.31-1.91-6.5-7-6.5"/><path d="M41.41,28.63A2,2,0,0,1,39.85,28a1.92,1.92,0,0,1-.3-1.72A3.66,3.66,0,0,1,43,23.74h3.67l-1.31,4.89ZM51.95,14a5.38,5.38,0,0,0-4-1.87H41.32l-1.13,4.22h6.29l.6.06a1.42,1.42,0,0,1,.9.5,1.86,1.86,0,0,1,.11,1.59l-.3,1.11h-4c-3.41,0-8.16,2.45-9.22,6.4a5.36,5.36,0,0,0,1,4.93,6.47,6.47,0,0,0,5,1.93h8.33l2.19-8.17,1.61-6a5,5,0,0,0-.74-4.7"/><path d="M97.73,12.11a8.06,8.06,0,0,0-4.84,1.54,6.69,6.69,0,0,0-2.59,3.93c-1,3.66,1.89,5.42,4.21,6.68,1.66.9,3.09,1.67,2.78,2.82-.22.82-.58,1.54-2.62,1.54H88.45l-1.13,4.22h6.89a7.87,7.87,0,0,0,4.93-1.44,7.66,7.66,0,0,0,2.63-4.33,4.76,4.76,0,0,0-1-4.57,12.42,12.42,0,0,0-3.4-2.36c-1.49-.8-2.9-1.56-2.65-2.48a1.86,1.86,0,0,1,1.91-1.33h6.05l1.13-4.22Z"/><path d="M61.61,12.11a8.06,8.06,0,0,0-4.84,1.54,6.71,6.71,0,0,0-2.59,3.93c-1,3.66,1.9,5.42,4.21,6.68,1.66.9,3.09,1.67,2.78,2.82-.22.82-.58,1.54-2.62,1.54H52.33L51.2,32.85h6.89A7.87,7.87,0,0,0,63,31.41a7.66,7.66,0,0,0,2.63-4.33,4.77,4.77,0,0,0-1-4.57,12.39,12.39,0,0,0-3.41-2.36c-1.49-.8-2.9-1.56-2.65-2.48a1.86,1.86,0,0,1,1.91-1.33H66.6l1.13-4.22Z"/><polygon points="71.01 12.11 65.61 32.85 70.17 32.85 75.57 12.11 71.01 12.11"/><path d="M87.72,12.11A13.55,13.55,0,0,0,74.14,22.48c-1.58,5.91,1.56,10.37,7.32,10.37h3.86l1.13-4.22H82.59c-2.15,0-5.12-1.7-3.92-6.15a8.55,8.55,0,0,1,8.18-6.15H89.3l1.13-4.22Z"/><path d="M406.38,41.73c-.33,0-.64.16-.64.5s.3.47,1.2.76,2.13.78,2.13,2.11a2.5,2.5,0,0,1-2.72,2.37,3.37,3.37,0,0,1-3-1.84l1.53-.82a1.7,1.7,0,0,0,1.46,1c.36,0,.81-.14.81-.57s-.66-.61-1.63-1a2.19,2.19,0,0,1-1.69-2,2.29,2.29,0,0,1,2.46-2.19,3,3,0,0,1,2.39,1.21l-1.14,1A1.74,1.74,0,0,0,406.38,41.73Zm-5.14,5.62h-1.91V41.84H398.2v-1.7h1.13v-.66a2.57,2.57,0,0,1,2.59-2.54h1v1.81h-.79a.81.81,0,0,0-.87.85v.55H403v1.7h-1.79Zm-7.32.12a3.69,3.69,0,0,1-3.7-3.69h0a3.7,3.7,0,1,1,7.39,0h0a3.69,3.69,0,0,1-3.68,3.71Zm0-5.52a1.82,1.82,0,0,0-1.79,1.83,1.79,1.79,0,1,0,3.58,0A1.82,1.82,0,0,0,393.91,41.94Zm1.75-2.67a1.07,1.07,0,0,1-1.07-1.07h0a1.07,1.07,0,1,1,1.07,1.07Zm-2.44-1.07a1.07,1.07,0,1,1-2.14,0h0a1.07,1.07,0,1,1,2.14,0Zm-.07-10.82a2.4,2.4,0,0,1-2.4-2.4h0V19.52a2.4,2.4,0,0,1,2.4-2.4h0a2.4,2.4,0,0,1,2.39,2.4h0V25a2.4,2.4,0,0,1-2.39,2.4Zm0-17.12a2.4,2.4,0,0,1-2.39-2.4h0V2.4A2.4,2.4,0,0,1,393.15,0h0a2.4,2.4,0,0,1,2.4,2.4V7.86a2.4,2.4,0,0,1-2.39,2.4ZM387.4,16.1H382a2.4,2.4,0,0,1-2.4-2.4h0a2.4,2.4,0,0,1,2.39-2.4h5.44a2.4,2.4,0,0,1,2.4,2.4h0a2.4,2.4,0,0,1-2.4,2.4Zm-3.68,24.8v-.76h1.86v6.47a3.78,3.78,0,0,1-3.86,4,3.85,3.85,0,0,1-2.66-1l1.22-1.31a2.42,2.42,0,0,0,1.44.52,2,2,0,0,0,2-1.89v-.34a2.78,2.78,0,0,1-2,.84,3.69,3.69,0,0,1,0-7.37A2.82,2.82,0,0,1,383.73,40.9Zm-3.61,2.87a1.81,1.81,0,0,0,3.63,0A1.8,1.8,0,0,0,382,41.94h0a1.81,1.81,0,0,0-1.81,1.81Zm-3.9-33.5a2.4,2.4,0,0,1-2.39-2.4h0V2.4A2.4,2.4,0,0,1,376.22,0h0a2.4,2.4,0,0,1,2.4,2.4V7.86a2.4,2.4,0,0,1-2.39,2.4Zm0,6.86a2.4,2.4,0,0,1,2.4,2.4h0V25a2.4,2.4,0,1,1-4.79,0h0V19.52a2.4,2.4,0,0,1,2.39-2.4Zm-1.09,23H377v7.21h-1.86v-.72a2.77,2.77,0,0,1-2,.84,3.71,3.71,0,0,1,0-7.41,2.82,2.82,0,0,1,2,.84Zm-1.8,1.81a1.81,1.81,0,0,0-1.81,1.81v0a1.81,1.81,0,1,0,1.86-1.83Zm-6.9,1.12h-4.18v4.29h-2V36.93h2v4.22h4.18V36.93h2V47.35h-2ZM389,47.35h-1.91V36.93H389Z"/><path class="cls-1" d="M24,80.83a1.85,1.85,0,0,1-1.87-2.52c.79-2.8,5.85-7,9.31-7,2.52,0,2.33,2.25.85,4.18l-.82.9c-2.93,2.88-5.64,4.41-7.47,4.41ZM36.3,61.92c-4.41,0-9.26,2.7-12.31,5.25l.24.35C29,64.21,35.53,62,37.34,65.28c1,1.71-.67,5.15-3,7.88.55-1.2.19-3.51-3-3.51-5.3,0-15.72,7-15.72,14.19,0,2.88,2,4.75,5.28,4.75,8.79,0,20.72-14.42,20.72-21.66,0-2.56-1.47-5-5.37-5Z"/><path class="cls-1" d="M59.29,79.52H51v4.61H47.12V69.59h14a9.6,9.6,0,0,1,5.38,1.3,4.2,4.2,0,0,1,1.95,3.68,4.11,4.11,0,0,1-1.19,3,6.57,6.57,0,0,1-3.38,1.67l5,4.88H63.92Zm-8.32-3h9.77a6,6,0,0,0,2.58-.47,1.64,1.64,0,0,0,0-3,6.12,6.12,0,0,0-2.58-.46H51Z"/><path class="cls-1" d="M74.39,83.81a6.63,6.63,0,0,1-3-2.28,5.84,5.84,0,0,1-1-3.46V72.6h3.87v5.47a3.1,3.1,0,0,0,.59,1.87,3.79,3.79,0,0,0,1.64,1.25,6,6,0,0,0,2.37.44,6.37,6.37,0,0,0,2.44-.44A3.87,3.87,0,0,0,83,80a3,3,0,0,0,.6-1.89V72.6h3.87v5.47a5.83,5.83,0,0,1-1,3.46,6.67,6.67,0,0,1-3,2.28,13.09,13.09,0,0,1-9,0Z"/><path class="cls-1" d="M103.72,72.83a5.86,5.86,0,0,1,3.66,5.67v5.64h-3.87v-5A4,4,0,0,0,103,77a3.75,3.75,0,0,0-1.53-1.42,4.77,4.77,0,0,0-2.22-.5,7,7,0,0,0-2.65.48A4.19,4.19,0,0,0,94.7,77a3.85,3.85,0,0,0-.69,2.3v4.82H90.15V72.6h3.67v2.53a6,6,0,0,1,2.47-2.2,8.15,8.15,0,0,1,3.73-.81A9.36,9.36,0,0,1,103.72,72.83Z"/><path class="cls-1" d="M117.27,79.6l-2.93,1.95v2.59H110.5V68h3.85v9.87L122,72.6h5.78l-7.56,5.06,7.72,6.48h-5.32Z"/><path class="cls-1" d="M133.18,83.83a7.22,7.22,0,0,1-3.27-2.21,5.11,5.11,0,0,1-1.13-3.27,5,5,0,0,1,1.12-3.21A7.38,7.38,0,0,1,133,72.92a12.63,12.63,0,0,1,8.81,0,6.9,6.9,0,0,1,3.06,2.29A5.84,5.84,0,0,1,146,78.76v.66l-13.32,0a3,3,0,0,0,1.9,1.81,10.22,10.22,0,0,0,3.81.62,20.1,20.1,0,0,0,3.4-.26q1.51-.26,3.38-.74v2.81q-1.81.46-3.37.72a21.86,21.86,0,0,1-3.55.26A14.66,14.66,0,0,1,133.18,83.83Zm8.73-6.62a2.93,2.93,0,0,0-1.5-1.85,6,6,0,0,0-3-.7,6.59,6.59,0,0,0-3.14.68,3,3,0,0,0-1.59,1.87Z"/><path class="cls-1" d="M152.47,83.83a7.21,7.21,0,0,1-3.27-2.21,5.1,5.1,0,0,1-1.13-3.27,5,5,0,0,1,1.12-3.21,7.36,7.36,0,0,1,3.09-2.23,12.63,12.63,0,0,1,8.8,0,6.9,6.9,0,0,1,3.06,2.29,5.84,5.84,0,0,1,1.11,3.57v.66l-13.32,0a3,3,0,0,0,1.91,1.81,10.21,10.21,0,0,0,3.81.62,20.09,20.09,0,0,0,3.4-.26q1.52-.26,3.38-.74v2.81q-1.8.46-3.37.72a21.85,21.85,0,0,1-3.55.26A14.63,14.63,0,0,1,152.47,83.83Zm8.74-6.62a2.92,2.92,0,0,0-1.51-1.85,6,6,0,0,0-3-.7,6.59,6.59,0,0,0-3.14.68A3,3,0,0,0,152,77.22Z"/><path class="cls-1" d="M181.79,72.9a7,7,0,0,1,3,2.2,5.5,5.5,0,0,1,0,6.53,6.93,6.93,0,0,1-3,2.21,11,11,0,0,1-4.23.78,10.72,10.72,0,0,1-3.37-.52,6.5,6.5,0,0,1-2.49-1.38v6h-3.87V72.6h3.83v1.47a6.45,6.45,0,0,1,2.48-1.41,10.62,10.62,0,0,1,3.42-.53A11,11,0,0,1,181.79,72.9Zm-7.54,2.44a4.6,4.6,0,0,0-1.93,1.15,2.59,2.59,0,0,0-.73,1.86,2.66,2.66,0,0,0,.73,1.89,4.41,4.41,0,0,0,1.92,1.16,8.53,8.53,0,0,0,2.59.38,7.36,7.36,0,0,0,2.65-.43,3.89,3.89,0,0,0,1.73-1.2,2.85,2.85,0,0,0,.6-1.8,2.81,2.81,0,0,0-.6-1.77,3.9,3.9,0,0,0-1.73-1.2,7.36,7.36,0,0,0-2.65-.43,8.33,8.33,0,0,0-2.59.39Z"/><path class="cls-1" d="M192.27,83.83A7.22,7.22,0,0,1,189,81.62a5.11,5.11,0,0,1-1.13-3.27A5,5,0,0,1,189,75.14a7.38,7.38,0,0,1,3.09-2.23,12.63,12.63,0,0,1,8.81,0,6.9,6.9,0,0,1,3.06,2.29,5.84,5.84,0,0,1,1.11,3.57v.66l-13.32,0a3,3,0,0,0,1.91,1.81,10.21,10.21,0,0,0,3.81.62,20.1,20.1,0,0,0,3.4-.26q1.51-.26,3.38-.74v2.81q-1.8.46-3.37.72a21.86,21.86,0,0,1-3.55.26A14.67,14.67,0,0,1,192.27,83.83ZM201,77.21a2.93,2.93,0,0,0-1.5-1.85,6,6,0,0,0-3-.7,6.56,6.56,0,0,0-3.14.68,3,3,0,0,0-1.59,1.87Z"/><path class="cls-1" d="M207.8,72.6h3.81v2.87a5.75,5.75,0,0,1,2.9-2.41,12.44,12.44,0,0,1,4.94-.94v3.21a12.68,12.68,0,0,0-3.55.44,7.61,7.61,0,0,0-3,1.53,3.29,3.29,0,0,0-1.22,2.61v4.24H207.8Z"/><path class="cls-1" d="M222.94,72.22h-1.75v-.59h4.26v.59H223.7v2.26h-.76Z"/><path class="cls-1" d="M226.09,71.64h.66l1.84,1.67,1.84-1.67h.66v2.85h-.76V72.65L228.87,74h-.54l-1.47-1.34v1.84h-.75Z"/><path d="M256.36,79.36a1.86,1.86,0,0,1-1.88-2.54c.79-2.82,5.88-7,9.34-7,2.53,0,2.34,2.26.85,4.2l-.82.91c-2.94,2.89-5.66,4.43-7.5,4.43m12.38-19c-4.42,0-9.29,2.71-12.35,5.28l.24.35c4.75-3.33,11.33-5.5,13.15-2.25,1,1.72-.67,5.18-3,7.91.55-1.21.19-3.53-3-3.53-5.31,0-15.77,7-15.77,14.26,0,2.89,2,4.78,5.3,4.78,8.83,0,20.8-14.48,20.8-21.76,0-2.57-1.48-5-5.39-5"/><path d="M279.84,83.46V80.12A40.34,40.34,0,0,0,290,81.61c5.31,0,7-.54,7-1.67s-2.29-1.44-4.37-1.63l-6.38-.6c-2.74-.25-6.73-.95-6.73-4.45,0-3,3.73-4.52,10.65-4.52a52.2,52.2,0,0,1,10.07,1v3.2a48.66,48.66,0,0,0-10-1.11c-5,0-6.53.47-6.53,1.4,0,1.15,2.14,1.32,3.85,1.46l6,.56c3.77.35,7.68,1.26,7.68,4.66,0,3.67-5.07,4.8-11.14,4.8a41.24,41.24,0,0,1-10.17-1.22"/><path d="M316.79,78V72.33h4V78c0,2.23,2,3.69,4.78,3.67s4.78-1.44,4.78-3.67V72.33h4V78c0,4.1-3.4,6.72-8.75,6.72s-8.75-2.62-8.75-6.72"/><path d="M336.16,78.27c0-3.86,3.64-6.43,8.48-6.43a9.09,9.09,0,0,1,6,2v-6h4V84.18H350.7V82.68a8.94,8.94,0,0,1-6.05,2c-4.86,0-8.48-2.56-8.48-6.41m14.62,0c0-2.39-2.64-3.53-5.4-3.53-3.19,0-5.11,1.42-5.11,3.53s1.91,3.51,5.11,3.51c2.76,0,5.4-1.15,5.4-3.51"/><rect x="357.51" y="72.33" width="3.95" height="11.85"/><path d="M364.08,78.27c0-3.67,3.85-6.43,9.39-6.43s9.41,2.76,9.41,6.43-3.85,6.41-9.41,6.41-9.39-2.72-9.39-6.41m14.68,0c0-1.9-2.18-3.53-5.29-3.53s-5.27,1.63-5.27,3.53,2.16,3.51,5.27,3.51,5.29-1.55,5.29-3.51"/><path d="M303.61,72.33v7.48c0,3.28,3,4.87,6.73,4.87a19.33,19.33,0,0,0,3.67-.29l0-3.07a20.2,20.2,0,0,1-3,.29c-1.69,0-3.44-.56-3.44-2.6V75.22h6.51V72.33Z"/><polygon points="307.54 71.08 307.54 68.56 303.61 69.65 303.61 71.08 307.54 71.08"/><polygon points="382.86 69.63 381.38 69.63 381.38 69.14 384.96 69.14 384.96 69.63 383.49 69.63 383.49 71.52 382.86 71.52 382.86 69.63"/><polygon points="385.5 69.14 386.05 69.14 387.6 70.54 389.14 69.14 389.69 69.14 389.69 71.52 389.06 71.52 389.06 69.98 387.83 71.11 387.37 71.11 386.13 69.98 386.13 71.52 385.5 71.52 385.5 69.14"/></g></g></svg>