<?xml version="1.0" encoding="UTF-8"?>
<svg width="1358px" height="170px" viewBox="0 0 1358 170" version="1.1" xmlns="http://www.w3.org/2000/svg" xmlns:xlink="http://www.w3.org/1999/xlink">
    <!-- Generator: Sketch 52.1 (67048) - http://www.bohemiancoding.com/sketch -->
    <title>ASICS Runkeeper Global Copy</title>
    <desc>Created with Sketch.</desc>
    <defs>
        <polygon id="path-1" points="0 0.167 164.6289 0.167 164.6289 169.025 0 169.025"></polygon>
    </defs>
    <g id="ASICS-Runkeeper-Global-Copy" stroke="none" stroke-width="1" fill="none" fill-rule="evenodd">
        <g id="Group" transform="translate(0.000000, -1.000000)">
            <g id="Group-3" transform="translate(0.000000, 0.833000)">
                <mask id="mask-2" fill="white">
                    <use xlink:href="#path-1"></use>
                </mask>
                <g id="Clip-2"></g>
                <path d="M130.6179,0.167 C102.7189,0.181 71.9849,17.252 52.6969,33.415 L54.2229,35.618 C84.1609,14.628 125.7239,0.975 137.1839,21.45 C143.2329,32.26 132.9599,54.073 118.4989,71.315 C121.9649,63.701 119.6819,49.079 99.5189,49.079 C65.9849,49.079 -0.0001,93.494 -0.0001,138.933 C-0.0001,157.141 12.6239,169.025 33.4219,169.025 C89.1059,169.025 164.6289,77.747 164.6289,31.9 C164.6259,15.71 155.3109,0.167 130.6179,0.167 M52.4779,119.922 C42.8459,119.922 38.2169,112.514 40.6279,103.941 C45.6259,86.188 77.7029,59.866 99.5609,59.866 C115.5119,59.866 114.2949,74.131 104.9539,86.304 L99.7849,92.017 C81.2569,110.207 64.0749,119.922 52.4779,119.922" id="Fill-1" fill="#001E62" mask="url(#mask-2)"></path>
            </g>
            <polygon id="Fill-4" fill="#3EC1D1" points="1314.4742 69.1103 1305.2012 69.1103 1305.2012 65.9993 1327.7512 65.9993 1327.7512 69.1103 1318.4782 69.1103 1318.4782 81.0403 1314.4742 81.0403"></polygon>
            <polygon id="Fill-6" fill="#3EC1D1" points="1331.152 65.999 1334.658 65.999 1344.387 74.857 1354.118 65.999 1357.624 65.999 1357.624 81.04 1353.64 81.04 1353.64 71.352 1345.84 78.426 1342.935 78.426 1335.135 71.352 1335.135 81.04 1331.152 81.04"></polygon>
            <path d="M223.5402,93.4902 L285.3892,93.4902 C292.1612,93.4902 297.6012,92.4962 301.7082,90.5062 C305.8132,88.5172 307.8672,85.3612 307.8672,81.0442 C307.8672,76.6422 305.8132,73.4682 301.7082,71.5192 C297.6012,69.5722 292.1612,68.5972 285.3892,68.5972 L223.5402,68.5972 L223.5402,93.4902 Z M276.2452,112.4132 L223.5402,112.4132 L223.5402,141.6232 L199.1552,141.6232 L199.1552,49.5482 L287.6752,49.5482 C302.2362,49.5482 313.6032,52.3012 321.7742,57.8022 C329.9432,63.3072 334.0292,71.0542 334.0292,81.0442 C334.0292,88.7502 331.5102,95.1402 326.4732,100.2202 C321.4352,105.3012 314.3012,108.8152 305.0732,110.7612 L336.8232,141.6232 L305.5822,141.6232 L276.2452,112.4132 Z" id="Fill-8" fill="#3EC1D1"></path>
            <path d="M371.8381,139.5908 C363.7101,136.2048 357.4431,131.3998 353.0421,125.1768 C348.6391,118.9528 346.4391,111.6508 346.4391,103.2698 L346.4391,68.5978 L370.9491,68.5978 L370.9491,103.2698 C370.9491,107.7578 372.1971,111.7148 374.6951,115.1438 C377.1921,118.5718 380.6431,121.2198 385.0461,123.0808 C389.4471,124.9448 394.4441,125.8748 400.0321,125.8748 C405.7891,125.8748 410.9331,124.9448 415.4631,123.0808 C419.9911,121.2198 423.5271,118.5938 426.0671,115.2068 C428.6081,111.8218 429.8771,107.8408 429.8771,103.2698 L429.8771,68.5978 L454.3881,68.5978 L454.3881,103.2698 C454.3881,111.6508 452.1861,118.9528 447.7841,125.1768 C443.3811,131.3998 437.1161,136.2048 428.9881,139.5908 C420.8601,142.9768 411.3351,144.6708 400.4131,144.6708 C389.4911,144.6708 379.9661,142.9768 371.8381,139.5908" id="Fill-10" fill="#3EC1D1"></path>
            <path d="M557.5915,70.0586 C564.6595,73.0646 570.2915,77.6156 574.4825,83.7106 C578.6735,89.8066 580.7695,97.2166 580.7695,105.9356 L580.7695,141.6226 L556.2575,141.6226 L556.2575,109.8726 C556.2575,104.8786 555.0925,100.4336 552.7655,96.5376 C550.4355,92.6446 547.2185,89.6386 543.1125,87.5216 C539.0055,85.4066 534.3285,84.3456 529.0795,84.3456 C522.8985,84.3456 517.3105,85.3616 512.3165,87.3946 C507.3195,89.4256 503.3625,92.4746 500.4415,96.5376 C497.5205,100.6016 496.0595,105.4716 496.0595,111.1426 L496.0595,141.6226 L471.6755,141.6226 L471.6755,68.5976 L494.9165,68.5976 L494.9165,84.5996 C498.5565,78.7576 503.7635,74.1226 510.5375,70.6936 C517.3105,67.2646 525.1845,65.5496 534.1595,65.5496 C542.7105,65.5496 550.5215,67.0546 557.5915,70.0586" id="Fill-12" fill="#3EC1D1"></path>
            <polygon id="Fill-14" fill="#3EC1D1" points="643.3923 112.9209 624.8503 125.2399 624.8503 141.6229 600.4663 141.6229 600.4663 39.3889 624.8503 39.3889 624.8503 101.8719 673.2383 68.5979 709.8143 68.5979 661.9353 100.6019 710.8303 141.6229 677.1743 141.6229"></polygon>
            <path d="M799.4138,97.8086 C798.2268,92.9826 795.0518,89.0886 789.8888,86.1236 C784.7238,83.1616 778.3728,81.6796 770.8388,81.6796 C762.9648,81.6796 756.3388,83.1196 750.9628,85.9966 C745.5858,88.8766 742.2198,92.8136 740.8668,97.8086 L799.4138,97.8086 Z M744.1048,139.7186 C735.0878,136.4156 728.1858,131.7606 723.4038,125.7476 C718.6198,119.7376 716.2278,112.8376 716.2278,105.0466 C716.2278,97.5116 718.5988,90.7406 723.3408,84.7266 C728.0808,78.7166 734.6008,74.0176 742.8978,70.6296 C751.1948,67.2446 760.5078,65.5496 770.8388,65.5496 C781.1678,65.5496 790.4378,67.2016 798.6518,70.5026 C806.8628,73.8046 813.3198,78.6306 818.0188,84.9806 C822.7188,91.3306 825.0668,98.8676 825.0668,107.5866 L825.0668,111.7776 L740.7398,111.6506 C742.2638,116.6476 746.2838,120.4566 752.8048,123.0806 C759.3228,125.7066 767.3658,127.0176 776.9348,127.0176 C784.8928,127.0176 792.0668,126.4686 798.4608,125.3676 C804.8528,124.2676 811.9868,122.7006 819.8608,120.6676 L819.8608,138.4486 C812.2408,140.3966 805.1288,141.9186 798.5238,143.0206 C791.9208,144.1196 784.4278,144.6706 776.0458,144.6706 C763.7678,144.6706 753.1218,143.0206 744.1048,139.7186 Z" id="Fill-16" fill="#3EC1D1"></path>
            <path d="M921.572,97.8086 C920.385,92.9826 917.21,89.0886 912.047,86.1236 C906.882,83.1616 900.531,81.6796 892.997,81.6796 C885.123,81.6796 878.497,83.1196 873.121,85.9966 C867.744,88.8766 864.378,92.8136 863.025,97.8086 L921.572,97.8086 Z M866.263,139.7186 C857.246,136.4156 850.344,131.7606 845.562,125.7476 C840.778,119.7376 838.386,112.8376 838.386,105.0466 C838.386,97.5116 840.757,90.7406 845.499,84.7266 C850.239,78.7166 856.759,74.0176 865.056,70.6296 C873.353,67.2446 882.666,65.5496 892.997,65.5496 C903.326,65.5496 912.596,67.2016 920.81,70.5026 C929.021,73.8046 935.478,78.6306 940.177,84.9806 C944.877,91.3306 947.225,98.8676 947.225,107.5866 L947.225,111.7776 L862.898,111.6506 C864.422,116.6476 868.442,120.4566 874.963,123.0806 C881.481,125.7066 889.524,127.0176 899.093,127.0176 C907.051,127.0176 914.225,126.4686 920.619,125.3676 C927.011,124.2676 934.145,122.7006 942.019,120.6676 L942.019,138.4486 C934.399,140.3966 927.287,141.9186 920.682,143.0206 C914.079,144.1196 906.586,144.6706 898.204,144.6706 C885.926,144.6706 875.28,143.0206 866.263,139.7186 Z" id="Fill-18" fill="#3EC1D1"></path>
            <path d="M1004.1364,85.9336 C999.0564,87.5836 994.9704,90.0196 991.8804,93.2366 C988.7884,96.4546 987.2444,100.3916 987.2444,105.0466 C987.2444,109.7046 988.7884,113.6836 991.8804,116.9846 C994.9704,120.2876 999.0334,122.7446 1004.0734,124.3516 C1009.1094,125.9606 1014.5914,126.7636 1020.5194,126.7636 C1026.9524,126.7636 1032.5404,125.8556 1037.2824,124.0336 C1042.0244,122.2136 1045.6644,119.6736 1048.2044,116.4136 C1050.7444,113.1556 1052.0154,109.3656 1052.0154,105.0466 C1052.0154,100.8146 1050.7444,97.0686 1048.2044,93.8076 C1045.6644,90.5486 1042.0244,88.0096 1037.2824,86.1876 C1032.5404,84.3676 1026.9524,83.4566 1020.5194,83.4566 C1014.6774,83.4566 1009.2164,84.2836 1004.1364,85.9336 M1051.8884,70.5026 C1059.8454,73.8046 1066.0904,78.4406 1070.6204,84.4106 C1075.1494,90.3786 1077.4144,97.2576 1077.4144,105.0466 C1077.4144,112.8376 1075.1494,119.7376 1070.6204,125.7476 C1066.0904,131.7606 1059.8454,136.4156 1051.8884,139.7186 C1043.9284,143.0206 1034.9964,144.6706 1025.0914,144.6706 C1017.5544,144.6706 1010.4424,143.5706 1003.7544,141.3696 C997.0664,139.1676 991.8174,136.2476 988.0064,132.6056 L988.0064,170.8326 L963.4954,170.8326 L963.4954,68.5976 L987.7524,68.5976 L987.7524,77.8696 C991.5634,74.1446 996.7894,71.1606 1003.4374,68.9156 C1010.0824,66.6736 1017.3004,65.5496 1025.0914,65.5496 C1034.9964,65.5496 1043.9284,67.2016 1051.8884,70.5026" id="Fill-20" fill="#3EC1D1"></path>
            <path d="M1173.5387,97.8086 C1172.3517,92.9826 1169.1767,89.0886 1164.0137,86.1236 C1158.8487,83.1616 1152.4977,81.6796 1144.9637,81.6796 C1137.0897,81.6796 1130.4637,83.1196 1125.0877,85.9966 C1119.7107,88.8766 1116.3447,92.8136 1114.9917,97.8086 L1173.5387,97.8086 Z M1118.2297,139.7186 C1109.2127,136.4156 1102.3107,131.7606 1097.5287,125.7476 C1092.7447,119.7376 1090.3527,112.8376 1090.3527,105.0466 C1090.3527,97.5116 1092.7237,90.7406 1097.4657,84.7266 C1102.2057,78.7166 1108.7257,74.0176 1117.0227,70.6296 C1125.3197,67.2446 1134.6327,65.5496 1144.9637,65.5496 C1155.2927,65.5496 1164.5627,67.2016 1172.7767,70.5026 C1180.9877,73.8046 1187.4447,78.6306 1192.1437,84.9806 C1196.8437,91.3306 1199.1917,98.8676 1199.1917,107.5866 L1199.1917,111.7776 L1114.8647,111.6506 C1116.3887,116.6476 1120.4087,120.4566 1126.9297,123.0806 C1133.4477,125.7066 1141.4907,127.0176 1151.0597,127.0176 C1159.0177,127.0176 1166.1917,126.4686 1172.5857,125.3676 C1178.9777,124.2676 1186.1117,122.7006 1193.9857,120.6676 L1193.9857,138.4486 C1186.3657,140.3966 1179.2537,141.9186 1172.6487,143.0206 C1166.0457,144.1196 1158.5527,144.6706 1150.1707,144.6706 C1137.8927,144.6706 1127.2467,143.0206 1118.2297,139.7186 Z" id="Fill-22" fill="#3EC1D1"></path>
            <path d="M1216.5905,68.5976 L1240.7205,68.5976 L1240.7205,86.7596 C1244.1065,80.4936 1250.2245,75.4136 1259.0715,71.5196 C1267.9185,67.6246 1278.3545,65.6346 1290.3775,65.5496 L1290.3775,85.8696 C1283.0115,85.7016 1275.5195,86.6316 1267.8995,88.6636 C1260.2785,90.6966 1253.8855,93.9136 1248.7215,98.3166 C1243.5565,102.7186 1240.9745,108.2226 1240.9745,114.8266 L1240.9745,141.6226 L1216.5905,141.6226 L1216.5905,68.5976 Z" id="Fill-24" fill="#3EC1D1"></path>
        </g>
    </g>
</svg>