<svg xmlns="http://www.w3.org/2000/svg" viewBox="240 0 130 40"><title>brandlogos3</title><g id="Layer_2" data-name="Layer 2"><g id="Layer_1-2" data-name="Layer 1"><path d="M287.84,19.07c-1.57,2.88-.41,3.84.11,4.31,1.46-.81,1.71-3.57,1.75-4.65Zm25.89-2.55c-.52-.1-.88,1-1.11,1.8L314,18c.46-1,.23-1.41-.27-1.52m-35-6.74s0,12,0,15.84,2.54,5.15,5.09,5.16c0,0,9.58-.11,13.27,0s6.88,2.2,8.67,3.36c1.79-1.16,5-3.22,8.68-3.35s13.27,0,13.27,0c2.56,0,5.1-1.28,5.11-5.15s0-15.84,0-15.84Zm16.58,14.29c-.39,1.32-3,2.65-5.2,2.74s-5.26-.88-5.27-4.78c0-3.28,3.49-4.71,4.21-4.76-.14.21-.62.82-.62.82l4.62-1c.15,0,.2,0,.2.19a25.09,25.09,0,0,1-.59,3.31,2.92,2.92,0,0,1-1,1.71c-.62.5-2.52,1.89-2.52,1.89a4,4,0,0,0,3.26.74s2.12-7.8,2.14-8.79c-1.35.46-5.17,0-8.49,1.31.31-1.35,1.59-2.69,4.12-3.22s6.52-.44,8.77-1.36c0,.66-.09,1.61-3.33,3.17-.58,1.59-1.94,7.44-2.11,8.55a15.91,15.91,0,0,0,1.86-.55m2.55,1.12c-1-.14-.93-1.18-.95-1.45a10.3,10.3,0,0,1,.36-1.82c.1-.32.53-1.26,0-1.85L298.66,19c.71.13,1.52.15,1.32,1.16s-.53,2.5-.58,2.8-.23.74.79.68c-.54.78-1.33,1.72-2.35,1.59M299.48,18l-1.43-.8,1.51-1.2,1.44.76Zm8,4.7a3.71,3.71,0,0,1-2.09,2.83,2.9,2.9,0,0,1-3.84-.37l2-1.7c1.33,1.28,1.88.38,2.28-.31-1.34-1.79.13-3.29.74-4a1.93,1.93,0,0,1-1.31-.19c-.17.12-1.21,1.07-1.25,1.77s.54,1,1.17,1.28l-2,1.58a3.07,3.07,0,0,1-1.13-2.08c.11-1.77,1.7-2.9,1.86-3.12s1.76-1.2,2.67-.83a5.4,5.4,0,0,0,2.39.29c-.76.72-1.18,3.37-1.53,4.8m9-4.87c-.06.41,0,.68-.91.86s-1.8.31-3,.48c-.65,1.11-.4,1.45.24,1.53a6.85,6.85,0,0,0,2.31-.49c-.31.32-2.12,2-3.32,1.79-1.65-.34-2-1.49-1.53-3.18a4.12,4.12,0,0,1,4-3.16,1.88,1.88,0,0,1,2.16,2.16m8.42-2.37c-.28.19-.42.17-.79.1s-1.31-.3-1.6-.35a1.63,1.63,0,0,0-1.5.9A4.77,4.77,0,0,0,320.4,18c0,.71,0,.81,1.74.23-.47.69-2,2.49-3.66,2.39,0,0-1.08.06-.86-1.14s.55-3.27.68-3.63.8-1.31,1.36-1.27a1.86,1.86,0,0,1,1.27.74l2.28-1.54a19.41,19.41,0,0,0,3.17.52,12.69,12.69,0,0,1-1.54,1.14"/><path d="M278.45,5a4.37,4.37,0,1,1,8.73,0,4.37,4.37,0,1,1-8.73,0m3.32,0c0,1.18.34,2.24.9,2.24s.91-1.05.92-2.23-.36-2.25-.92-2.25-.91,1.06-.9,2.24"/><path d="M290.64,3.86A3.38,3.38,0,0,1,292.72,3c1.57,0,1.84.75,1.84,1.57V7.15h.64V8.77h-3V5.47c0-.68-.39-.79-.74-.79a.73.73,0,0,0-.83.79V7.15h.65V8.76h-3.56V7.15h.64V4.83h-.64V3.23h2.93v.64Z"/><path d="M299.54,8.77H296V7.15h.64V4.84H296V3.23h2.94V7.15h.65Zm-3.3-6.46V.58h2.66V2.31Z"/><path d="M303.18,3.24H304v1.6h-.77V6.52c0,.44.12.52.45.52H304V8.78h-1.68c-.91,0-1.39-.42-1.39-1.31V4.84h-.64V3.24h.64V1.55h2.29V3.24Z"/><path d="M306,8.78h-1.3V7.28H306a1.6,1.6,0,0,0,.36.43,1.09,1.09,0,0,0,.69.2c.51,0,.71-.13.71-.53S307,7,306.19,6.74s-1.57-.61-1.57-1.7a1.93,1.93,0,0,1,2.17-2,2.33,2.33,0,0,1,1.53.53V3.24h1.28V4.82h-1.3a1,1,0,0,0-.37-.51,1.18,1.18,0,0,0-.68-.21c-.43,0-.61.27-.61.51,0,.47.77.53,1.53.74s1.55.58,1.55,1.7c0,1.39-1.08,1.91-2.34,1.9A2.33,2.33,0,0,1,306,8.5Z"/><path d="M315,8.09a3.41,3.41,0,0,1-2.25.87C311.57,9,311,8.4,311,7.32V4.85h-.59V3.24h2.94v3.4c0,.47.24.64.73.64.83,0,.83-.45.83-1.2V4.85h-.64V3.24h2.93V7.17h.57V8.79H315v-.7Z"/><polygon points="318.38 7.17 318.99 7.18 319 2.21 318.41 2.2 318.41 0.6 321.29 0.6 321.3 5.72 322.23 4.74 321.84 4.74 321.83 3.25 325.08 3.25 325.08 4.74 324.49 4.74 323.57 5.56 324.88 7.18 325.16 7.18 325.16 8.79 323 8.79 321.29 6.57 321.29 8.79 318.38 8.79 318.38 7.17"/><path d="M326.49,3.42a11.75,11.75,0,0,1,2.82-.4c.47,0,3,0,2.92,4.17h.39V8.8h-2.68V8.6a6.84,6.84,0,0,1-2,.34A1.86,1.86,0,0,1,325.77,7c0-1.87,2.11-1.89,2.5-1.89a5.45,5.45,0,0,1,1.63.35c0-.74-.38-1.46-3.22-.85ZM327.9,7a.75.75,0,0,0,.78.77c.62,0,.95-.35,1-.73,0-.61-.53-.79-1-.79a.7.7,0,0,0-.76.75"/></g></g></svg>