<svg xmlns="http://www.w3.org/2000/svg" viewBox="0 0 22.07 15.92"><defs><style>.cls-1{fill:#ffffff;}</style></defs><title>Asset 1</title><g id="Layer_2" data-name="Layer 2"><g id="Layer_1-2" data-name="Layer 1"><path class="cls-1" d="M1.34,7.79,2,6.7l11.28,6.66h7.84v1.56H13.32ZM12.92,1.37l.52.89L12.19,3l.52.84,1.23-.76.56,1-1.18.72.51.85L15,5l.52.91-1.1.7L15,7.4,16,6.72l1,1.73,4.07,2.31v1.6H13.52L2.46,5.83,5,1.43,8.9,3.81ZM13.27,0,8.9,2.65,4.61.05,0,8.15l12.94,7.7.11.07h9V10.18L17.74,7.71l-1.9-3.27h0L15.58,4Z"/></g></g></svg>