<svg xmlns="http://www.w3.org/2000/svg" viewBox="0 0 332.8 34.56"><title>brandlogos3</title><g id="Layer_2" data-name="Layer 2"><g id="Layer_1-2" data-name="Layer 1"><g id="g10"><g id="g12"><path id="path14" d="M156.59,9.82h2v-5h-2a8.06,8.06,0,0,0-4.72,14.6c1.43,1.07,1.78,1.87,1.8,2.53A2.79,2.79,0,0,1,151,24.66v5.05a8.06,8.06,0,0,0,7.71-8.05,8.16,8.16,0,0,0-.75-3.42,8.55,8.55,0,0,0-3.21-3,3,3,0,0,1,1.85-5.44h0"/><path id="path16" d="M150.23,29.7V24.65a2.78,2.78,0,0,1-2.68-2.75V12.78h0a8.07,8.07,0,0,0-8.07-8h-2.67v5h2.68a3,3,0,0,1,3,3v1.24a8.07,8.07,0,1,0-3,15.54h2.69v-5h-2.68a3,3,0,1,1,3-3v.16h0v0h0a8,8,0,0,0,7.68,7.93"/><path id="path18" d="M159.35,9.83h5.05V4.78h-5.05Zm0,19.83h5.05V10.59h-5.05V29.66"/><path id="path20" d="M179,24.6h-1.44a7.38,7.38,0,1,1,0-14.76V4.79a12.44,12.44,0,0,0,0,24.87H179V24.6"/><path id="path22" d="M185.39,9.82h2v-5h-2a8.06,8.06,0,0,0-4.72,14.6c1.43,1.07,1.78,1.87,1.8,2.53a2.79,2.79,0,0,1-2.67,2.75v5a8,8,0,0,0,7.71-8,8.16,8.16,0,0,0-.75-3.42,8.55,8.55,0,0,0-3.21-3,3,3,0,0,1,1.85-5.44h0"/><path id="path24" d="M188.15,4.79V9.84h4V29.67h5.05V9.84h4V4.79h-13"/><path id="path26" d="M201.88,9.83h5.05V4.78h-5.05Zm0,19.83h5.05V10.59h-5.05V29.66"/><path id="path28" d="M221.57,29.66v-15h-5v9a7.38,7.38,0,0,1,3.6-13.83h1.08V4.79h-1.08a12.44,12.44,0,0,0,0,24.87h1.44"/><path id="path30" d="M234.5,4.79a12.44,12.44,0,0,0,0,24.87V24.6a7.41,7.41,0,0,1-6.66-4.86h6.66V14.7h-6.66a7.4,7.4,0,0,1,6.66-4.86V4.79"/><path id="path32" d="M245,12.25a2.43,2.43,0,0,1-2.43,2.43H240.3V9.83h2.31A2.43,2.43,0,0,1,245,12.25m.24,7a7.47,7.47,0,0,0-2.68-14.44h-7.36V29.65h5.05V20.1a12.45,12.45,0,0,0,10.57,9.69V24.66a7.4,7.4,0,0,1-5.59-5.45"/></g></g><path d="M287.84,19.07c-1.57,2.88-.41,3.84.11,4.31,1.46-.81,1.71-3.57,1.75-4.65Zm25.89-2.55c-.52-.1-.88,1-1.11,1.8L314,18c.46-1,.23-1.41-.27-1.52m-35-6.74s0,12,0,15.84,2.54,5.15,5.09,5.16c0,0,9.58-.11,13.27,0s6.88,2.2,8.67,3.36c1.79-1.16,5-3.22,8.68-3.35s13.27,0,13.27,0c2.56,0,5.1-1.28,5.11-5.15s0-15.84,0-15.84Zm16.58,14.29c-.39,1.32-3,2.65-5.2,2.74s-5.26-.88-5.27-4.78c0-3.28,3.49-4.71,4.21-4.76-.14.21-.62.82-.62.82l4.62-1c.15,0,.2,0,.2.19a25.09,25.09,0,0,1-.59,3.31,2.92,2.92,0,0,1-1,1.71c-.62.5-2.52,1.89-2.52,1.89a4,4,0,0,0,3.26.74s2.12-7.8,2.14-8.79c-1.35.46-5.17,0-8.49,1.31.31-1.35,1.59-2.69,4.12-3.22s6.52-.44,8.77-1.36c0,.66-.09,1.61-3.33,3.17-.58,1.59-1.94,7.44-2.11,8.55a15.91,15.91,0,0,0,1.86-.55m2.55,1.12c-1-.14-.93-1.18-.95-1.45a10.3,10.3,0,0,1,.36-1.82c.1-.32.53-1.26,0-1.85L298.66,19c.71.13,1.52.15,1.32,1.16s-.53,2.5-.58,2.8-.23.74.79.68c-.54.78-1.33,1.72-2.35,1.59M299.48,18l-1.43-.8,1.51-1.2,1.44.76Zm8,4.7a3.71,3.71,0,0,1-2.09,2.83,2.9,2.9,0,0,1-3.84-.37l2-1.7c1.33,1.28,1.88.38,2.28-.31-1.34-1.79.13-3.29.74-4a1.93,1.93,0,0,1-1.31-.19c-.17.12-1.21,1.07-1.25,1.77s.54,1,1.17,1.28l-2,1.58a3.07,3.07,0,0,1-1.13-2.08c.11-1.77,1.7-2.9,1.86-3.12s1.76-1.2,2.67-.83a5.4,5.4,0,0,0,2.39.29c-.76.72-1.18,3.37-1.53,4.8m9-4.87c-.06.41,0,.68-.91.86s-1.8.31-3,.48c-.65,1.11-.4,1.45.24,1.53a6.85,6.85,0,0,0,2.31-.49c-.31.32-2.12,2-3.32,1.79-1.65-.34-2-1.49-1.53-3.18a4.12,4.12,0,0,1,4-3.16,1.88,1.88,0,0,1,2.16,2.16m8.42-2.37c-.28.19-.42.17-.79.1s-1.31-.3-1.6-.35a1.63,1.63,0,0,0-1.5.9A4.77,4.77,0,0,0,320.4,18c0,.71,0,.81,1.74.23-.47.69-2,2.49-3.66,2.39,0,0-1.08.06-.86-1.14s.55-3.27.68-3.63.8-1.31,1.36-1.27a1.86,1.86,0,0,1,1.27.74l2.28-1.54a19.41,19.41,0,0,0,3.17.52,12.69,12.69,0,0,1-1.54,1.14"/><path d="M278.45,5a4.37,4.37,0,1,1,8.73,0,4.37,4.37,0,1,1-8.73,0m3.32,0c0,1.18.34,2.24.9,2.24s.91-1.05.92-2.23-.36-2.25-.92-2.25-.91,1.06-.9,2.24"/><path d="M290.64,3.86A3.38,3.38,0,0,1,292.72,3c1.57,0,1.84.75,1.84,1.57V7.15h.64V8.77h-3V5.47c0-.68-.39-.79-.74-.79a.73.73,0,0,0-.83.79V7.15h.65V8.76h-3.56V7.15h.64V4.83h-.64V3.23h2.93v.64Z"/><path d="M299.54,8.77H296V7.15h.64V4.84H296V3.23h2.94V7.15h.65Zm-3.3-6.46V.58h2.66V2.31Z"/><path d="M303.18,3.24H304v1.6h-.77V6.52c0,.44.12.52.45.52H304V8.78h-1.68c-.91,0-1.39-.42-1.39-1.31V4.84h-.64V3.24h.64V1.55h2.29V3.24Z"/><path d="M306,8.78h-1.3V7.28H306a1.6,1.6,0,0,0,.36.43,1.09,1.09,0,0,0,.69.2c.51,0,.71-.13.71-.53S307,7,306.19,6.74s-1.57-.61-1.57-1.7a1.93,1.93,0,0,1,2.17-2,2.33,2.33,0,0,1,1.53.53V3.24h1.28V4.82h-1.3a1,1,0,0,0-.37-.51,1.18,1.18,0,0,0-.68-.21c-.43,0-.61.27-.61.51,0,.47.77.53,1.53.74s1.55.58,1.55,1.7c0,1.39-1.08,1.91-2.34,1.9A2.33,2.33,0,0,1,306,8.5Z"/><path d="M315,8.09a3.41,3.41,0,0,1-2.25.87C311.57,9,311,8.4,311,7.32V4.85h-.59V3.24h2.94v3.4c0,.47.24.64.73.64.83,0,.83-.45.83-1.2V4.85h-.64V3.24h2.93V7.17h.57V8.79H315v-.7Z"/><polygon points="318.38 7.17 318.99 7.18 319 2.21 318.41 2.2 318.41 0.6 321.29 0.6 321.3 5.72 322.23 4.74 321.84 4.74 321.83 3.25 325.08 3.25 325.08 4.74 324.49 4.74 323.57 5.56 324.88 7.18 325.16 7.18 325.16 8.79 323 8.79 321.29 6.57 321.29 8.79 318.38 8.79 318.38 7.17"/><path d="M326.49,3.42a11.75,11.75,0,0,1,2.82-.4c.47,0,3,0,2.92,4.17h.39V8.8h-2.68V8.6a6.84,6.84,0,0,1-2,.34A1.86,1.86,0,0,1,325.77,7c0-1.87,2.11-1.89,2.5-1.89a5.45,5.45,0,0,1,1.63.35c0-.74-.38-1.46-3.22-.85ZM327.9,7a.75.75,0,0,0,.78.77c.62,0,.95-.35,1-.73,0-.61-.53-.79-1-.79a.7.7,0,0,0-.76.75"/><path d="M10.74,24.51a2.39,2.39,0,0,1-2.43-3.27c1-3.63,7.59-9,12.06-9,3.26,0,3,2.92,1.1,5.41L20.42,18.8c-3.79,3.72-7.31,5.71-9.68,5.71M26.73,0C21,0,14.73,3.5,10.79,6.8l.31.45c6.13-4.3,14.63-7.09,17-2.9,1.24,2.21-.86,6.68-3.82,10.21C25,13,24.5,10,20.37,10,13.51,10,0,19.1,0,28.4c0,3.73,2.58,6.16,6.84,6.16,11.4,0,26.85-18.68,26.85-28.07,0-3.31-1.91-6.5-7-6.5"/><path d="M41.41,24.51a2,2,0,0,1-1.56-.65,1.92,1.92,0,0,1-.3-1.72A3.66,3.66,0,0,1,43,19.63h3.67l-1.31,4.89ZM51.95,9.86A5.38,5.38,0,0,0,48,8H41.32l-1.13,4.22h6.29l.6.06a1.42,1.42,0,0,1,.9.5,1.86,1.86,0,0,1,.11,1.59l-.3,1.11h-4c-3.41,0-8.16,2.45-9.22,6.4a5.36,5.36,0,0,0,1,4.93,6.47,6.47,0,0,0,5,1.93h8.33l2.19-8.17,1.61-6a5,5,0,0,0-.74-4.7"/><path d="M97.73,8a8.06,8.06,0,0,0-4.84,1.54,6.69,6.69,0,0,0-2.59,3.93c-1,3.66,1.89,5.42,4.21,6.68,1.66.9,3.09,1.67,2.78,2.82-.22.82-.58,1.54-2.62,1.54H88.45l-1.13,4.22h6.89a7.87,7.87,0,0,0,4.93-1.44A7.66,7.66,0,0,0,101.77,23a4.76,4.76,0,0,0-1-4.57A12.42,12.42,0,0,0,97.41,16c-1.49-.8-2.9-1.56-2.65-2.48a1.86,1.86,0,0,1,1.91-1.33h6.05L103.85,8Z"/><path d="M61.61,8a8.06,8.06,0,0,0-4.84,1.54,6.71,6.71,0,0,0-2.59,3.93c-1,3.66,1.9,5.42,4.21,6.68C60,21,61.48,21.82,61.17,23c-.22.82-.58,1.54-2.62,1.54H52.33L51.2,28.73h6.89A7.87,7.87,0,0,0,63,27.29,7.66,7.66,0,0,0,65.65,23a4.77,4.77,0,0,0-1-4.57A12.39,12.39,0,0,0,61.29,16c-1.49-.8-2.9-1.56-2.65-2.48a1.86,1.86,0,0,1,1.91-1.33H66.6L67.73,8Z"/><polygon points="71.01 8 65.61 28.73 70.17 28.73 75.57 8 71.01 8"/><path d="M87.72,8A13.55,13.55,0,0,0,74.14,18.36c-1.58,5.91,1.56,10.37,7.32,10.37h3.86l1.13-4.22H82.59c-2.15,0-5.12-1.7-3.92-6.15a8.55,8.55,0,0,1,8.18-6.15H89.3L90.44,8Z"/></g></g></svg>